<svg width="134" height="40" viewBox="0 0 134 40" fill="none" xmlns="http://www.w3.org/2000/svg">
<path d="M128.587 0H4.14403C1.85534 0 0 1.86548 0 4.16667V35.8333C0 38.1345 1.85534 40 4.14403 40H128.587C130.876 40 132.732 38.1345 132.732 35.8333V4.16667C132.732 1.86548 130.876 0 128.587 0Z" fill="black"/>
<path d="M27.9679 20.8479C27.981 19.8258 28.251 18.8236 28.7528 17.9346C29.2546 17.0456 29.972 16.2987 30.838 15.7634C30.2878 14.9733 29.562 14.3231 28.7182 13.8645C27.8744 13.4057 26.9358 13.1512 25.9771 13.1211C23.9319 12.9052 21.9491 14.3516 20.9069 14.3516C19.8445 14.3516 18.2399 13.1425 16.512 13.1782C15.3943 13.2146 14.305 13.5413 13.3503 14.1268C12.3956 14.7122 11.608 15.5363 11.0642 16.5188C8.70873 20.6192 10.4657 26.6455 12.7221 29.96C13.851 31.583 15.1703 33.396 16.8967 33.3317C18.5861 33.2612 19.217 32.2485 21.2562 32.2485C23.2765 32.2485 23.8684 33.3317 25.6298 33.2908C27.4426 33.2612 28.5847 31.6606 29.674 30.0222C30.4851 28.8657 31.1093 27.5876 31.5233 26.2351C30.4702 25.7872 29.5714 25.0376 28.9392 24.0796C28.3069 23.1216 27.9691 21.9977 27.9679 20.8479Z" fill="white"/>
<path d="M24.641 10.9411C25.6294 9.74809 26.1163 8.21467 25.9984 6.6665C24.4884 6.82596 23.0935 7.55163 22.0918 8.69884C21.602 9.2593 21.2269 9.91134 20.9878 10.6176C20.7489 11.3239 20.6506 12.0707 20.6988 12.8152C21.4541 12.823 22.2013 12.6584 22.8841 12.3338C23.567 12.0091 24.1677 11.533 24.641 10.9411Z" fill="white"/>
<path d="M50.0002 26.573H44.8724L43.6412 30.1454H41.4689L46.3261 16.9282H48.5829L53.4397 30.1454H51.231L50.0002 26.573ZM45.4036 24.9244H49.4681L47.4645 19.1266H47.4085L45.4036 24.9244Z" fill="white"/>
<path d="M63.9295 25.3276C63.9295 28.3222 62.298 30.2461 59.8361 30.2461C59.2124 30.2781 58.5924 30.137 58.0467 29.8388C57.5009 29.5407 57.0517 29.0975 56.75 28.5602H56.7036V33.3331H54.6904V20.5089H56.6389V22.1117H56.6763C56.9912 21.5768 57.4483 21.136 57.9982 20.836C58.5481 20.536 59.1705 20.3881 59.7992 20.408C62.2885 20.408 63.9295 22.3414 63.9295 25.3276ZM61.86 25.3276C61.86 23.3766 60.834 22.0939 59.2679 22.0939C57.7297 22.0939 56.6953 23.4036 56.6953 25.3276C56.6953 27.2692 57.7297 28.5695 59.2679 28.5695C60.834 28.5695 61.86 27.2962 61.86 25.3276Z" fill="white"/>
<path d="M74.7247 25.3281C74.7247 28.3226 73.0936 30.2466 70.6316 30.2466C70.008 30.2786 69.3876 30.1374 68.8418 29.8393C68.2961 29.5411 67.8469 29.098 67.5456 28.5606H67.4988V33.3336H65.4856V20.5093H67.4345V22.1121H67.4714C67.7868 21.5773 68.2434 21.1364 68.7934 20.8365C69.3433 20.5365 69.9657 20.3886 70.5944 20.4085C73.0841 20.4085 74.7247 22.3418 74.7247 25.3281ZM72.6556 25.3281C72.6556 23.3771 71.6291 22.0944 70.0635 22.0944C68.5252 22.0944 67.4905 23.4041 67.4905 25.3281C67.4905 27.2697 68.5252 28.57 70.0635 28.57C71.6291 28.57 72.6556 27.2967 72.6556 25.3281Z" fill="white"/>
<path d="M81.8598 26.4629C82.009 27.7736 83.3048 28.6342 85.076 28.6342C86.773 28.6342 87.9938 27.7736 87.9938 26.5918C87.9938 25.5659 87.2574 24.9516 85.514 24.5306L83.7702 24.118C81.3 23.5318 80.1533 22.3967 80.1533 20.5549C80.1533 18.2744 82.176 16.708 85.0482 16.708C87.891 16.708 89.84 18.2744 89.9054 20.5549H87.8732C87.7514 19.2358 86.6416 18.4397 85.0196 18.4397C83.3981 18.4397 82.2883 19.2452 82.2883 20.4177C82.2883 21.3521 82.9969 21.902 84.7308 22.3229L86.2131 22.6804C88.9735 23.3218 90.1201 24.4111 90.1201 26.3444C90.1201 28.8171 88.1152 30.3658 84.9268 30.3658C81.9431 30.3658 79.9287 28.8535 79.7986 26.4628L81.8598 26.4629Z" fill="white"/>
<path d="M94.4651 18.2285V20.509H96.3304V22.0754H94.4651V27.3879C94.4651 28.2131 94.8385 28.5977 95.6586 28.5977C95.8799 28.5939 96.1012 28.5786 96.3208 28.5519V30.109C95.9524 30.1766 95.5774 30.2073 95.2028 30.2005C93.217 30.2005 92.4424 29.4677 92.4424 27.5988V22.0754H91.0165V20.509H92.4424V18.2285H94.4651Z" fill="white"/>
<path d="M97.4108 25.3278C97.4108 22.2958 99.2283 20.3906 102.062 20.3906C104.906 20.3906 106.715 22.2958 106.715 25.3278C106.715 28.3681 104.916 30.265 102.062 30.265C99.2101 30.265 97.4108 28.3681 97.4108 25.3278ZM104.664 25.3278C104.664 23.248 103.694 22.0204 102.062 22.0204C100.431 22.0204 99.4621 23.2573 99.4621 25.3278C99.4621 27.416 100.431 28.6342 102.062 28.6342C103.694 28.6342 104.664 27.416 104.664 25.3278Z" fill="white"/>
<path d="M108.375 20.5088H110.295V22.1489H110.342C110.472 21.6367 110.777 21.184 111.207 20.8669C111.637 20.5499 112.164 20.3878 112.701 20.4079C112.934 20.4071 113.165 20.4319 113.391 20.4817V22.3319C113.098 22.244 112.793 22.2036 112.487 22.2123C112.194 22.2007 111.902 22.2514 111.632 22.3609C111.361 22.4704 111.118 22.6361 110.919 22.8468C110.719 23.0574 110.569 23.3079 110.477 23.5811C110.386 23.8543 110.356 24.1437 110.389 24.4294V30.1451H108.375V20.5088Z" fill="white"/>
<path d="M122.674 27.3152C122.403 29.0645 120.669 30.265 118.45 30.265C115.597 30.265 113.826 28.3868 113.826 25.3735C113.826 22.351 115.606 20.3906 118.365 20.3906C121.079 20.3906 122.786 22.222 122.786 25.1438V25.8215H115.858V25.9411C115.826 26.2957 115.872 26.653 115.991 26.9892C116.11 27.3253 116.301 27.6327 116.551 27.8908C116.8 28.149 117.103 28.352 117.438 28.4865C117.774 28.6209 118.135 28.6837 118.497 28.6706C118.973 28.7144 119.45 28.6061 119.858 28.3619C120.266 28.1177 120.583 27.7506 120.762 27.3152H122.674ZM115.868 24.4391H120.771C120.79 24.1202 120.74 23.8011 120.627 23.5018C120.514 23.2025 120.338 22.9295 120.113 22.6998C119.887 22.4702 119.615 22.2889 119.314 22.1673C119.014 22.0457 118.691 21.9865 118.365 21.9934C118.038 21.9915 117.713 22.0533 117.409 22.1755C117.106 22.2976 116.83 22.4775 116.598 22.7049C116.366 22.9323 116.182 23.2026 116.056 23.5003C115.931 23.7979 115.867 24.117 115.868 24.4391Z" fill="white"/>
<path d="M45.1513 6.97986C45.5731 6.95011 45.9971 7.01274 46.3912 7.16328C46.7857 7.31382 47.1412 7.54849 47.4321 7.85036C47.7235 8.15224 47.9423 8.51382 48.0741 8.90899C48.2054 9.30415 48.246 9.72307 48.193 10.1355C48.193 12.1644 47.0766 13.3307 45.1513 13.3307H42.8165V6.97986H45.1513ZM43.8202 12.4326H45.039C45.3407 12.4503 45.6428 12.4017 45.9225 12.2904C46.2026 12.179 46.4542 12.0077 46.658 11.7889C46.8623 11.5701 47.0144 11.3093 47.1031 11.0255C47.1918 10.7418 47.215 10.4422 47.1711 10.1484C47.2117 9.85594 47.1864 9.55815 47.0961 9.27644C47.0061 8.99478 46.8536 8.73611 46.6502 8.51907C46.4463 8.30199 46.1964 8.1319 45.9179 8.02099C45.639 7.91003 45.339 7.86099 45.039 7.87732H43.8202V12.4326Z" fill="white"/>
<path d="M49.3271 10.932C49.2965 10.6171 49.333 10.2993 49.4345 9.99906C49.5364 9.69885 49.7005 9.42281 49.9173 9.18869C50.134 8.95452 50.398 8.76744 50.6926 8.63944C50.9868 8.51144 51.3055 8.44531 51.6275 8.44531C51.9495 8.44531 52.2682 8.51144 52.5624 8.63944C52.857 8.76744 53.121 8.95452 53.3377 9.18869C53.5545 9.42281 53.7186 9.69885 53.8205 9.99906C53.922 10.2993 53.9589 10.6171 53.9283 10.932C53.9593 11.2473 53.9229 11.5656 53.8218 11.8663C53.7202 12.167 53.5561 12.4435 53.3394 12.6781C53.1227 12.9127 52.8583 13.1002 52.5636 13.2285C52.269 13.3568 51.9499 13.423 51.6275 13.423C51.3051 13.423 50.9864 13.3568 50.6914 13.2285C50.3967 13.1002 50.1323 12.9127 49.9156 12.6781C49.6989 12.4435 49.5348 12.167 49.4332 11.8663C49.3321 11.5656 49.2957 11.2473 49.3271 10.932ZM52.9378 10.932C52.9378 9.89315 52.4629 9.2856 51.6292 9.2856C50.7921 9.2856 50.3217 9.89315 50.3217 10.9321C50.3217 11.9793 50.7925 12.5821 51.6292 12.5821C52.4629 12.5821 52.9378 11.9751 52.9378 10.932Z" fill="white"/>
<path d="M60.0441 13.3303H59.0454L58.0371 9.80051H57.9609L56.9572 13.3303H55.968L54.6233 8.5376H55.5996L56.4736 12.1948H56.5457L57.5486 8.5376H58.4719L59.4751 12.1948H59.5514L60.4208 8.5376H61.3834L60.0441 13.3303Z" fill="white"/>
<path d="M62.5143 8.53765H63.4413V9.29903H63.513C63.6352 9.02557 63.8412 8.79632 64.1019 8.64328C64.3629 8.4902 64.6659 8.42095 64.9688 8.44515C65.2062 8.42761 65.4445 8.46278 65.6662 8.54803C65.8879 8.63328 66.0873 8.7664 66.2493 8.93761C66.4113 9.10882 66.5323 9.31365 66.6032 9.53699C66.6736 9.76032 66.6923 9.9964 66.6575 10.2277V13.3303H65.6948V10.4652C65.6948 9.69503 65.3542 9.31203 64.6418 9.31203C64.481 9.30465 64.3198 9.33157 64.1702 9.39103C64.0206 9.45045 63.886 9.54095 63.7753 9.65628C63.6647 9.77165 63.581 9.90915 63.5296 10.0594C63.4778 10.2096 63.4599 10.3689 63.4773 10.5266V13.3304H62.5143V8.53765Z" fill="white"/>
<path d="M68.1917 6.6665H69.1543V13.3302H68.1917V6.6665Z" fill="white"/>
<path d="M70.4924 10.9321C70.4617 10.6171 70.4986 10.2994 70.6001 9.99915C70.7021 9.6989 70.8662 9.42285 71.0829 9.18873C71.2996 8.95456 71.5636 8.76748 71.8582 8.63948C72.1529 8.51144 72.4712 8.44531 72.7931 8.44531C73.1155 8.44531 73.4338 8.51144 73.7284 8.63948C74.0231 8.76748 74.2871 8.95456 74.5038 9.18873C74.7201 9.42285 74.8846 9.6989 74.9862 9.99915C75.0881 10.2994 75.1246 10.6171 75.0939 10.9321C75.1254 11.2474 75.0889 11.5657 74.9874 11.8664C74.8863 12.1671 74.7218 12.4436 74.505 12.6782C74.2883 12.9128 74.0243 13.1003 73.7293 13.2286C73.4346 13.3569 73.1155 13.4231 72.7931 13.4231C72.4707 13.4231 72.1521 13.3569 71.857 13.2286C71.5624 13.1003 71.298 12.9128 71.0812 12.6782C70.8649 12.4436 70.7004 12.1671 70.5989 11.8664C70.4974 11.5657 70.4613 11.2474 70.4924 10.9321ZM74.1035 10.9321C74.1035 9.89327 73.6282 9.28573 72.7948 9.28573C71.9577 9.28573 71.4869 9.89327 71.4869 10.9321C71.4869 11.9794 71.9577 12.5822 72.7948 12.5822C73.6282 12.5822 74.1035 11.9752 74.1035 10.9321Z" fill="white"/>
<path d="M76.1075 11.9751C76.1075 11.1124 76.7615 10.6151 77.9222 10.5444L79.2433 10.4696V10.0559C79.2433 9.54969 78.9027 9.26385 78.2446 9.26385C77.7071 9.26385 77.335 9.45769 77.2281 9.79656H76.2961C76.3943 8.97335 77.1825 8.44531 78.289 8.44531C79.5123 8.44531 80.2018 9.04348 80.2018 10.0559V13.3306H79.2752V12.657H79.199C79.0444 12.8986 78.8273 13.0956 78.5699 13.2278C78.3126 13.36 78.0237 13.4227 77.7337 13.4095C77.5289 13.4304 77.3222 13.409 77.1261 13.3465C76.9301 13.284 76.7499 13.1819 76.597 13.0468C76.4436 12.9116 76.321 12.7465 76.2368 12.5619C76.1523 12.3773 76.1084 12.1774 76.1075 11.9751ZM79.2433 11.5656V11.1649L78.0523 11.2398C77.3802 11.2839 77.0756 11.5084 77.0756 11.931C77.0756 12.3623 77.4564 12.6134 77.9802 12.6134C78.1336 12.6286 78.2885 12.6134 78.4361 12.5686C78.5836 12.5238 78.7199 12.4503 78.838 12.3526C78.9557 12.2548 79.0523 12.1348 79.1219 11.9996C79.1919 11.8644 79.233 11.7168 79.2433 11.5656Z" fill="white"/>
<path d="M81.4674 10.9318C81.4674 9.41734 82.2597 8.45796 83.4922 8.45796C83.7972 8.44413 84.0997 8.51588 84.3645 8.6648C84.6293 8.81367 84.8456 9.03359 84.9882 9.2988H85.0603V6.6665H86.0229V13.3302H85.1005V12.573H85.0242C84.8709 12.8364 84.6467 13.0535 84.3769 13.201C84.1067 13.3483 83.8009 13.4203 83.4922 13.4092C82.251 13.4092 81.4674 12.4498 81.4674 10.9318ZM82.4616 10.9318C82.4616 11.9483 82.9493 12.56 83.7653 12.56C84.5767 12.56 85.0781 11.9395 85.0781 10.9359C85.0781 9.93705 84.5713 9.30767 83.7653 9.30767C82.9547 9.30767 82.4616 9.9235 82.4616 10.9318Z" fill="white"/>
<path d="M90.0062 10.932C89.9756 10.6171 90.012 10.2993 90.1136 9.99906C90.2155 9.69885 90.3796 9.42281 90.5963 9.18869C90.8131 8.95452 91.077 8.76744 91.3717 8.63944C91.6659 8.51144 91.9846 8.44531 92.3066 8.44531C92.6286 8.44531 92.9472 8.51144 93.2415 8.63944C93.5361 8.76744 93.8001 8.95452 94.0168 9.18869C94.2335 9.42281 94.3976 9.69885 94.4996 9.99906C94.6011 10.2993 94.6376 10.6171 94.6069 10.932C94.6384 11.2473 94.6019 11.5656 94.5008 11.8663C94.3993 12.167 94.2352 12.4435 94.0185 12.6781C93.8017 12.9127 93.5374 13.1002 93.2427 13.2285C92.9481 13.3568 92.629 13.423 92.3066 13.423C91.9842 13.423 91.6655 13.3568 91.3704 13.2285C91.0758 13.1002 90.8114 12.9127 90.5947 12.6781C90.3779 12.4435 90.2138 12.167 90.1123 11.8663C90.0112 11.5656 89.9747 11.2473 90.0062 10.932ZM93.6169 10.932C93.6169 9.89315 93.142 9.2856 92.3082 9.2856C91.4711 9.2856 91.0004 9.89315 91.0004 10.9321C91.0004 11.9793 91.4716 12.5821 92.3082 12.5821C93.142 12.5821 93.6169 11.9751 93.6169 10.932Z" fill="white"/>
<path d="M95.899 8.53765H96.8257V9.29903H96.8978C97.0196 9.02557 97.2256 8.79632 97.4862 8.64328C97.7473 8.4902 98.0502 8.42095 98.3531 8.44515C98.5906 8.42761 98.8289 8.46278 99.0506 8.54803C99.2723 8.63328 99.4716 8.7664 99.6336 8.93761C99.7961 9.10882 99.9167 9.31365 99.9876 9.53699C100.058 9.76032 100.077 9.9964 100.042 10.2277V13.3303H99.0792V10.4652C99.0792 9.69503 98.7385 9.31203 98.0266 9.31203C97.8654 9.30465 97.7042 9.33157 97.555 9.39103C97.4054 9.45045 97.2707 9.54095 97.1601 9.65628C97.0494 9.77165 96.9653 9.90915 96.9139 10.0594C96.8625 10.2096 96.8447 10.3689 96.8617 10.5266V13.3304H95.899V8.53765Z" fill="white"/>
<path d="M105.482 7.34424V8.55928H106.539V9.35603H105.482V11.8204C105.482 12.3225 105.693 12.5423 106.172 12.5423C106.294 12.5419 106.417 12.5347 106.539 12.5205V13.3084C106.366 13.3387 106.191 13.3549 106.015 13.3567C104.945 13.3567 104.518 12.9867 104.518 12.0626V9.35599H103.744V8.55924H104.518V7.34424H105.482Z" fill="white"/>
<path d="M107.854 6.6665H108.808V9.30767H108.884C109.012 9.03163 109.224 8.80113 109.49 8.64746C109.756 8.49384 110.064 8.42459 110.372 8.44909C110.608 8.43646 110.844 8.47521 111.063 8.56255C111.282 8.64984 111.479 8.78363 111.639 8.95425C111.8 9.12492 111.92 9.3283 111.991 9.5498C112.062 9.77134 112.083 10.0056 112.052 10.2358V13.3302H111.088V10.4692C111.088 9.70367 110.725 9.31596 110.045 9.31596C109.879 9.30263 109.713 9.32496 109.557 9.38146C109.402 9.43792 109.26 9.52713 109.143 9.64288C109.026 9.75859 108.936 9.89805 108.88 10.0515C108.823 10.2049 108.802 10.3685 108.816 10.531V13.3302H107.854V6.6665Z" fill="white"/>
<path d="M117.665 12.0361C117.535 12.4741 117.251 12.853 116.865 13.1064C116.478 13.3599 116.013 13.4719 115.552 13.4226C115.23 13.4309 114.911 13.3705 114.616 13.2454C114.32 13.1203 114.057 12.9336 113.842 12.6982C113.628 12.4629 113.468 12.1844 113.374 11.8824C113.28 11.5803 113.254 11.2617 113.298 10.9488C113.255 10.635 113.282 10.3157 113.375 10.0127C113.469 9.70974 113.628 9.43007 113.841 9.19266C114.054 8.9552 114.317 8.76557 114.611 8.63657C114.906 8.50757 115.225 8.4422 115.547 8.44491C116.905 8.44491 117.724 9.35599 117.724 10.861V11.191H114.279V11.244C114.264 11.4199 114.286 11.5969 114.345 11.7638C114.403 11.9306 114.497 12.0836 114.619 12.2129C114.742 12.3421 114.89 12.4449 115.055 12.5145C115.22 12.5841 115.398 12.619 115.578 12.6171C115.808 12.6442 116.042 12.6035 116.248 12.5C116.455 12.3966 116.625 12.235 116.739 12.036L117.665 12.0361ZM114.279 10.4915H116.743C116.755 10.3307 116.733 10.1691 116.678 10.0172C116.622 9.86528 116.535 9.72636 116.422 9.60945C116.309 9.49253 116.172 9.40016 116.021 9.3382C115.869 9.27628 115.706 9.24624 115.542 9.24991C115.376 9.24786 115.21 9.27857 115.056 9.34024C114.902 9.40191 114.762 9.49332 114.644 9.60903C114.526 9.72474 114.433 9.86241 114.371 10.014C114.308 10.1655 114.277 10.3279 114.279 10.4915Z" fill="white"/>
</svg>
