<svg width="374" height="427" viewBox="0 0 374 427" fill="none" xmlns="http://www.w3.org/2000/svg">
<path d="M117.124 279.884L46.3774 378.054V427H343.04V378.054L259.102 266.623L117.124 279.884Z" fill="url(#paint0_linear_108_1456)"/>
<path d="M46.3774 427V378.054L108.792 290.229L124.066 301.962L89.4222 379.442L86.3674 426.861L46.3774 427Z" fill="url(#paint1_linear_108_1456)"/>
<path d="M345.123 378.054V427H304.994L302.98 383.469L256.603 293.561L270.697 281.897L345.123 378.054Z" fill="url(#paint2_linear_108_1456)"/>
<path d="M86.3674 426.861L89.4222 379.443L124.067 301.962L133.37 309.46L109.973 380.762L107.265 427L86.3674 426.861Z" fill="#383838"/>
<path d="M256.603 293.561L302.98 383.469L304.994 427H283.61L281.527 384.163L247.23 301.615L256.603 293.561Z" fill="#383838"/>
<path opacity="0.64" d="M120.109 350.7L187.87 419.155L264.518 343.549L281.527 384.164L283.61 427H107.265L109.973 380.762L120.109 350.7Z" fill="white"/>
<g style="mix-blend-mode:multiply" opacity="0.74">
<path d="M270.697 281.897L215.502 327.788H158.016L108.792 290.228L94.0044 312.167L149.06 357.017H229.596L287.984 303.975L270.697 281.897Z" fill="#CDC7C6"/>
</g>
<path d="M54.7781 189.698L111.361 103.817L32.3531 0.370117L3.54085 57.9252L0 147.764L54.7781 189.698Z" fill="url(#paint3_linear_108_1456)"/>
<path d="M81.5768 148.736L88.9363 137.42L28.7429 39.9438L26.3129 119.021L69.4271 181.298L81.5768 148.736Z" fill="url(#paint4_linear_108_1456)"/>
<g style="mix-blend-mode:screen" opacity="0.19">
<path d="M32.353 0.370117L111.361 103.817L95.393 128.116L32.353 0.370117Z" fill="white"/>
</g>
<path d="M318.948 189.698L262.365 103.817L341.373 0.370117L370.116 57.9252L373.726 147.764L318.948 189.698Z" fill="url(#paint5_linear_108_1456)"/>
<path d="M292.08 148.736L284.721 137.42L344.984 39.9438V119.021L301.869 183.727L292.08 148.736Z" fill="url(#paint6_linear_108_1456)"/>
<g style="mix-blend-mode:screen" opacity="0.19">
<path d="M341.373 0.370117L262.365 103.817L278.264 128.116L341.373 0.370117Z" fill="white"/>
</g>
<path d="M272.918 89.9316H191.55H181.969H100.531L41.5176 178.937L51.0986 246.351L158.016 327.789H183.565H189.953H215.502L308.049 249.545L327.419 182.895L272.918 89.9316Z" fill="url(#paint7_linear_108_1456)"/>
<path d="M126.149 151.374L182.108 111.454L250.355 162.135L216.821 198.099L210.017 226.008L183.08 248.364L160.516 232.396L155.725 198.099L126.149 151.374Z" fill="#F9F9F9"/>
<g style="mix-blend-mode:screen" opacity="0.19">
<path d="M272.502 89.9315L327.419 182.894L308.049 249.545L215.502 327.789H196.965L211.892 318.694L286.457 246.282L312.77 186.852L253.34 89.6538L272.502 89.9315Z" fill="white"/>
</g>
<path d="M158.919 222.051L137.327 253.224L145.242 286.271L221.473 285.577L231.609 253.987L206.824 219.621L184.468 204.486L158.919 222.051Z" fill="#AA9F9F"/>
<path d="M250.771 132.213L209.045 192.059L202.866 223.232L250.979 235.798L296.315 198.863L250.771 132.213Z" fill="#383838"/>
<path d="M177.317 233.228L181.899 198.445H185.648L190.856 233.992L205.227 258.014L221.473 285.576L203.7 302.655L183.913 309.668L164.126 301.961L145.242 286.271L160.516 260.374L177.317 233.228Z" fill="#383838"/>
<path d="M183.218 240.727L161.071 252.251L161.349 273.913L207.032 273.427L206.754 251.071L183.218 240.727Z" fill="black"/>
<path d="M183.782 252.61L168.231 252.784L168.281 257.296L183.832 257.122L183.782 252.61Z" fill="white"/>
<g style="mix-blend-mode:multiply" opacity="0.07">
<path d="M41.5176 178.937L100.531 89.9316H141.146L108.793 96.5272L52.6955 184.908L62.9705 238.853L163.223 322.027L183.565 327.789H158.016L51.0986 246.351L41.5176 178.937Z" fill="#4C4C4C"/>
</g>
<path d="M112.333 127.769L156.142 190.878L163.293 222.051L104.627 237.186L61.443 195.669L112.333 127.769Z" fill="#383838"/>
<path d="M100.531 89.9316H272.918L299.856 136.587L183.149 108.955L76.2311 126.659L100.531 89.9316Z" fill="#383838"/>
<path d="M82.0629 121.937L164.889 97.4985V117.146L82.0629 121.937Z" fill="black"/>
<path d="M296.315 141.724L226.124 125.825L226.888 147L296.315 141.724Z" fill="black"/>
<g style="mix-blend-mode:multiply" opacity="0.46">
<path d="M66.2335 191.573H154.198L158.364 208.86H82.2019L66.2335 191.573Z" fill="#6B6B6B"/>
</g>
<path d="M71.9265 193.933H151.629L154.198 205.805H84.354L71.9265 193.933Z" fill="#FFBC00"/>
<path d="M151.629 193.933L154.198 205.805H135.244L132.12 193.933H151.629Z" fill="#FF9D00"/>
<path d="M90.186 194.836H84.9789L82.4102 199.279L84.9789 203.653H90.186L92.8242 199.279L90.186 194.836Z" fill="black"/>
<path d="M89.9777 196.571H87.6172V198.931H89.9777V196.571Z" fill="white"/>
<g style="mix-blend-mode:multiply" opacity="0.46">
<path d="M290.206 191.573H211.198L207.032 208.86H274.168L290.206 191.573Z" fill="#6B6B6B"/>
</g>
<path d="M284.513 193.933H213.766L211.198 205.805H272.085L284.513 193.933Z" fill="#FFBC00"/>
<path d="M264.795 193.933L253.27 205.805H272.085L284.721 193.933H264.795Z" fill="#FF9D00"/>
<path d="M216.474 194.836H221.681L224.319 199.279L221.681 203.653H216.474L213.836 199.279L216.474 194.836Z" fill="black"/>
<path d="M216.682 198.863H219.043V196.502H216.682V198.863Z" fill="white"/>
<path d="M222.306 268.497L193.563 297.865L185.648 295.782V266.137H185.093H183.01H182.524V295.782L174.54 297.865L145.797 268.497L129.898 263.776V271.83L144.409 271.969L173.637 301.961L184.052 298.212L194.466 301.961L223.764 271.969L238.274 271.83V263.776L222.306 268.497Z" fill="black"/>
<path d="M103.03 193.933H98.7255V199.279H103.03V193.933Z" fill="white"/>
<path d="M233.761 193.933H229.457V199.279H233.761V193.933Z" fill="white"/>
<defs>
<linearGradient id="paint0_linear_108_1456" x1="46.3774" y1="346.811" x2="343.04" y2="346.811" gradientUnits="userSpaceOnUse">
<stop stop-color="#ACA9A4"/>
<stop offset="1" stop-color="#F3E3D8"/>
</linearGradient>
<linearGradient id="paint1_linear_108_1456" x1="85.2567" y1="428.875" x2="85.2567" y2="304.183" gradientUnits="userSpaceOnUse">
<stop stop-color="#BCB7A4"/>
<stop offset="1" stop-color="#6B6968"/>
</linearGradient>
<linearGradient id="paint2_linear_108_1456" x1="300.828" y1="428.874" x2="300.828" y2="304.183" gradientUnits="userSpaceOnUse">
<stop stop-color="#BCB7A4"/>
<stop offset="1" stop-color="#6B6968"/>
</linearGradient>
<linearGradient id="paint3_linear_108_1456" x1="89.6999" y1="165.26" x2="-12.2191" y2="38.9021" gradientUnits="userSpaceOnUse">
<stop stop-color="#F0EDE1"/>
<stop offset="1" stop-color="#9F9F9F"/>
</linearGradient>
<linearGradient id="paint4_linear_108_1456" x1="-40.8928" y1="-18.2361" x2="103.793" y2="188.935" gradientUnits="userSpaceOnUse">
<stop stop-color="#D66D89"/>
<stop offset="1" stop-color="#F2ADB3"/>
</linearGradient>
<linearGradient id="paint5_linear_108_1456" x1="284.027" y1="165.26" x2="385.876" y2="38.9021" gradientUnits="userSpaceOnUse">
<stop stop-color="#F0EDE1"/>
<stop offset="1" stop-color="#9F9F9F"/>
</linearGradient>
<linearGradient id="paint6_linear_108_1456" x1="415.591" y1="-20.1106" x2="267.433" y2="191.989" gradientUnits="userSpaceOnUse">
<stop stop-color="#D66D89"/>
<stop offset="1" stop-color="#F2ADB3"/>
</linearGradient>
<linearGradient id="paint7_linear_108_1456" x1="184.468" y1="89.1679" x2="184.468" y2="248.573" gradientUnits="userSpaceOnUse">
<stop stop-color="#ACA9A4"/>
<stop offset="1" stop-color="#F3DCCF"/>
</linearGradient>
</defs>
</svg>
