<svg width="136" height="40" viewBox="0 0 136 40" fill="none" xmlns="http://www.w3.org/2000/svg">
<g clip-path="url(#clip0_106_526)">
<path d="M131.848 0H4.25605C1.97305 0 0.122314 1.86548 0.122314 4.16667V35.8333C0.122314 38.1345 1.97305 40 4.25605 40H131.848C134.131 40 135.982 38.1345 135.982 35.8333V4.16667C135.982 1.86548 134.131 0 131.848 0Z" fill="black"/>
<path d="M21.0958 19.4019L10.1443 31.1177C10.1453 31.1197 10.1453 31.1229 10.1464 31.1249C10.4827 32.3971 11.6347 33.3333 13.0028 33.3333C13.55 33.3333 14.0633 33.184 14.5035 32.9227L14.5385 32.902L26.8653 25.7325L21.0958 19.4019Z" fill="#EA4335"/>
<path d="M32.1749 17.4067L32.1646 17.3994L26.8425 14.29L20.8468 19.6679L26.8642 25.7311L32.1574 22.6529C33.0851 22.1469 33.7157 21.1609 33.7157 20.0246C33.7157 18.8945 33.0944 17.9137 32.1749 17.4067Z" fill="#FBBC04"/>
<path d="M10.1442 8.88135C10.0783 9.12601 10.0433 9.38314 10.0433 9.6486V30.3514C10.0433 30.6168 10.0783 30.8739 10.1451 31.1176L21.4722 19.7014L10.1442 8.88135Z" fill="#4285F4"/>
<path d="M21.1767 19.9998L26.8443 14.288L14.532 7.09263C14.0845 6.822 13.562 6.6665 13.0034 6.6665C11.6354 6.6665 10.4813 7.6048 10.145 8.878C10.145 8.879 10.1439 8.88005 10.1439 8.88109L21.1767 19.9998Z" fill="#34A853"/>
<path d="M49.8364 9.97696C49.8364 10.7982 49.595 11.4518 49.1121 11.9399C48.5628 12.52 47.848 12.8101 46.9692 12.8101C46.1259 12.8101 45.4104 12.5161 44.8221 11.9272C44.2323 11.3392 43.9384 10.609 43.9384 9.7388C43.9384 8.86759 44.2323 8.13846 44.8221 7.5495C45.4104 6.9615 46.1259 6.6665 46.9692 6.6665C47.3863 6.6665 47.7869 6.74884 48.1659 6.91346C48.5462 7.07809 48.8505 7.29663 49.0791 7.57009L48.5657 8.0875C48.1796 7.623 47.6476 7.38975 46.9692 7.38975C46.3545 7.38975 45.8238 7.6073 45.3757 8.04242C44.9271 8.47855 44.7039 9.043 44.7039 9.7388C44.7039 10.4336 44.9271 10.9991 45.3757 11.4342C45.8238 11.8703 46.3545 12.0869 46.9692 12.0869C47.6207 12.0869 48.163 11.8684 48.5987 11.4303C48.8807 11.1451 49.0431 10.7492 49.0865 10.2396H46.9692V9.533H49.7954C49.8227 9.68688 49.8364 9.83484 49.8364 9.97696Z" fill="white"/>
<path d="M49.8364 9.97696C49.8364 10.7982 49.595 11.4518 49.1121 11.9399C48.5628 12.52 47.848 12.8101 46.9692 12.8101C46.1259 12.8101 45.4104 12.5161 44.8221 11.9272C44.2323 11.3392 43.9384 10.609 43.9384 9.7388C43.9384 8.86759 44.2323 8.13846 44.8221 7.5495C45.4104 6.9615 46.1259 6.6665 46.9692 6.6665C47.3863 6.6665 47.7869 6.74884 48.1659 6.91346C48.5462 7.07809 48.8505 7.29663 49.0791 7.57009L48.5657 8.0875C48.1796 7.623 47.6476 7.38975 46.9692 7.38975C46.3545 7.38975 45.8238 7.6073 45.3757 8.04242C44.9271 8.47855 44.7039 9.043 44.7039 9.7388C44.7039 10.4336 44.9271 10.9991 45.3757 11.4342C45.8238 11.8703 46.3545 12.0869 46.9692 12.0869C47.6207 12.0869 48.163 11.8684 48.5987 11.4303C48.8807 11.1451 49.0431 10.7492 49.0865 10.2396H46.9692V9.533H49.7954C49.8227 9.68688 49.8364 9.83484 49.8364 9.97696Z" fill="white"/>
<path d="M54.3178 7.52108H51.6614V9.38504H54.0573V10.0916H51.6614V11.9556H54.3178V12.6788H50.912V6.79883H54.3178V7.52108Z" fill="white"/>
<path d="M54.3178 7.52108H51.6614V9.38504H54.0573V10.0916H51.6614V11.9556H54.3178V12.6788H50.912V6.79883H54.3178V7.52108Z" fill="white"/>
<path d="M57.4784 12.6788H56.729V7.52108H55.0995V6.79883H59.108V7.52108H57.4784V12.6788Z" fill="white"/>
<path d="M57.4784 12.6788H56.729V7.52108H55.0995V6.79883H59.108V7.52108H57.4784V12.6788Z" fill="white"/>
<path d="M62.0085 6.79883H62.758V12.6788H62.0085V6.79883Z" fill="white"/>
<path d="M66.0827 12.6788H65.3329V7.52108H63.7034V6.79883H67.7123V7.52108H66.0827V12.6788Z" fill="white"/>
<path d="M66.0827 12.6788H65.3329V7.52108H63.7034V6.79883H67.7123V7.52108H66.0827V12.6788Z" fill="white"/>
<path d="M71.577 11.4264C72.0085 11.8674 72.5364 12.0869 73.1614 12.0869C73.7869 12.0869 74.3148 11.8674 74.7463 11.4264C75.1779 10.9854 75.3949 10.4228 75.3949 9.7388C75.3949 9.05475 75.1779 8.49125 74.7463 8.05125C74.3148 7.61025 73.7869 7.38975 73.1614 7.38975C72.5364 7.38975 72.0085 7.61025 71.577 8.05125C71.1462 8.49125 70.9292 9.05475 70.9292 9.7388C70.9292 10.4228 71.1462 10.9854 71.577 11.4264ZM75.3006 11.9183C74.7269 12.5132 74.0142 12.8101 73.1614 12.8101C72.3091 12.8101 71.5964 12.5132 71.0235 11.9183C70.4501 11.3245 70.1641 10.5983 70.1641 9.7388C70.1641 8.87934 70.4501 8.15217 71.0235 7.5583C71.5964 6.96442 72.3091 6.6665 73.1614 6.6665C74.0093 6.6665 74.7203 6.96542 75.2965 7.56221C75.8723 8.15905 76.1601 8.88425 76.1601 9.7388C76.1601 10.5983 75.8732 11.3245 75.3006 11.9183Z" fill="white"/>
<path d="M71.577 11.4264C72.0085 11.8674 72.5364 12.0869 73.1614 12.0869C73.7869 12.0869 74.3148 11.8674 74.7463 11.4264C75.1779 10.9854 75.3949 10.4228 75.3949 9.7388C75.3949 9.05475 75.1779 8.49125 74.7463 8.05125C74.3148 7.61025 73.7869 7.38975 73.1614 7.38975C72.5364 7.38975 72.0085 7.61025 71.577 8.05125C71.1462 8.49125 70.9292 9.05475 70.9292 9.7388C70.9292 10.4228 71.1462 10.9854 71.577 11.4264ZM75.3006 11.9183C74.7269 12.5132 74.0142 12.8101 73.1614 12.8101C72.3091 12.8101 71.5964 12.5132 71.0235 11.9183C70.4501 11.3245 70.1641 10.5983 70.1641 9.7388C70.1641 8.87934 70.4501 8.15217 71.0235 7.5583C71.5964 6.96442 72.3091 6.6665 73.1614 6.6665C74.0093 6.6665 74.7203 6.96542 75.2965 7.56221C75.8723 8.15905 76.1601 8.88425 76.1601 9.7388C76.1601 10.5983 75.8732 11.3245 75.3006 11.9183Z" fill="white"/>
<path d="M77.212 12.6788V6.79883H78.1239L80.9589 11.3725H80.9919L80.9589 10.2396V6.79883H81.7095V12.6788H80.927L77.9607 7.8827H77.9284L77.9607 9.01658V12.6788H77.212Z" fill="white"/>
<path d="M77.212 12.6788V6.79883H78.1239L80.9589 11.3725H80.9919L80.9589 10.2396V6.79883H81.7095V12.6788H80.927L77.9607 7.8827H77.9284L77.9607 9.01658V12.6788H77.212Z" fill="white"/>
<path d="M107.703 29.339H109.517V17.088H107.703V29.339ZM124.043 21.5009L121.964 26.8126H121.902L119.743 21.5009H117.789L121.026 28.9244L119.181 33.0542H121.072L126.061 21.5009H124.043ZM113.755 27.9474C113.16 27.9474 112.331 27.6485 112.331 26.9066C112.331 25.9619 113.363 25.5993 114.254 25.5993C115.052 25.5993 115.428 25.7728 115.913 26.0089C115.772 27.1438 114.802 27.9474 113.755 27.9474ZM113.974 21.2334C112.66 21.2334 111.299 21.8165 110.737 23.1091L112.347 23.7863C112.691 23.1091 113.332 22.8876 114.005 22.8876C114.943 22.8876 115.897 23.4551 115.913 24.4644V24.5899C115.584 24.4008 114.881 24.1175 114.021 24.1175C112.285 24.1175 110.517 25.0789 110.517 26.8753C110.517 28.5148 111.941 29.5712 113.535 29.5712C114.756 29.5712 115.428 29.0195 115.85 28.3727H115.913V29.3184H117.664V24.6213C117.664 22.4466 116.053 21.2334 113.974 21.2334ZM102.761 22.9925H100.181V18.7932H102.761C104.118 18.7932 104.888 19.9251 104.888 20.8924C104.888 21.842 104.118 22.9925 102.761 22.9925ZM102.715 17.088H98.3681V29.339H100.181V24.6977H102.715C104.725 24.6977 106.702 23.2296 106.702 20.8924C106.702 18.5551 104.725 17.088 102.715 17.088ZM79.0102 27.9494C77.7573 27.9494 76.7082 26.8919 76.7082 25.4396C76.7082 23.9715 77.7573 22.8974 79.0102 22.8974C80.2479 22.8974 81.2185 23.9715 81.2185 25.4396C81.2185 26.8919 80.2479 27.9494 79.0102 27.9494ZM81.0941 22.1869H81.0308C80.6232 21.6979 79.8407 21.2559 78.854 21.2559C76.7859 21.2559 74.891 23.0866 74.891 25.4396C74.891 27.7759 76.7859 29.5918 78.854 29.5918C79.8407 29.5918 80.6232 29.1499 81.0308 28.6442H81.0941V29.2449C81.0941 30.8394 80.2479 31.692 78.885 31.692C77.7726 31.692 77.0835 30.8864 76.8016 30.2073L75.2196 30.8707C75.6735 31.9762 76.8801 33.3335 78.885 33.3335C81.0151 33.3335 82.8166 32.0703 82.8166 28.9921V21.5078H81.0941V22.1869ZM84.0699 29.339H85.8871V17.087H84.0699V29.339ZM88.5645 25.2974C88.5183 23.6873 89.8026 22.8661 90.7261 22.8661C91.4474 22.8661 92.058 23.2287 92.2613 23.75L88.5645 25.2974ZM94.2038 23.9078C93.8595 22.9768 92.8095 21.2559 90.6637 21.2559C88.5335 21.2559 86.7643 22.9445 86.7643 25.4239C86.7643 27.7602 88.5182 29.5918 90.867 29.5918C92.7628 29.5918 93.8595 28.4236 94.3138 27.7445L92.9037 26.7969C92.4341 27.4917 91.7918 27.9494 90.867 27.9494C89.9436 27.9494 89.2851 27.5231 88.8622 26.6871L94.3915 24.3811L94.2038 23.9078ZM50.1526 22.5348V24.3028H54.35C54.2248 25.2975 53.8961 26.0236 53.3951 26.5284C52.7837 27.1448 51.828 27.8239 50.1526 27.8239C47.5674 27.8239 45.5472 25.7238 45.5472 23.1189C45.5472 20.5131 47.5674 18.4139 50.1526 18.4139C51.5469 18.4139 52.5651 18.9666 53.3166 19.6771L54.5542 18.4296C53.5042 17.4192 52.1108 16.645 50.1526 16.645C46.6129 16.645 43.6366 19.5507 43.6366 23.1189C43.6366 26.6871 46.6129 29.5918 50.1526 29.5918C52.0632 29.5918 53.5042 28.9597 54.6319 27.7759C55.7919 26.6077 56.1515 24.9662 56.1515 23.6393C56.1515 23.2287 56.1205 22.8504 56.0572 22.5348H50.1526ZM60.9243 27.9494C59.6714 27.9494 58.59 26.9076 58.59 25.4239C58.59 23.9235 59.6714 22.8974 60.9243 22.8974C62.1768 22.8974 63.2578 23.9235 63.2578 25.4239C63.2578 26.9076 62.1768 27.9494 60.9243 27.9494ZM60.9243 21.2559C58.6367 21.2559 56.7728 23.0082 56.7728 25.4239C56.7728 27.8239 58.6367 29.5918 60.9243 29.5918C63.2111 29.5918 65.075 27.8239 65.075 25.4239C65.075 23.0082 63.2111 21.2559 60.9243 21.2559ZM69.9793 27.9494C68.7259 27.9494 67.6445 26.9076 67.6445 25.4239C67.6445 23.9235 68.7259 22.8974 69.9793 22.8974C71.2322 22.8974 72.3123 23.9235 72.3123 25.4239C72.3123 26.9076 71.2322 27.9494 69.9793 27.9494ZM69.9793 21.2559C67.6925 21.2559 65.8286 23.0082 65.8286 25.4239C65.8286 27.8239 67.6925 29.5918 69.9793 29.5918C72.2656 29.5918 74.1295 27.8239 74.1295 25.4239C74.1295 23.0082 72.2656 21.2559 69.9793 21.2559Z" fill="white"/>
</g>
<defs>
<clipPath id="clip0_106_526">
<rect width="136" height="40" fill="white"/>
</clipPath>
</defs>
</svg>
