<svg width="523" height="444" viewBox="0 0 523 444" fill="none" xmlns="http://www.w3.org/2000/svg">
<path d="M407.77 109.304L414.208 97.776L403.328 79.8575L407.835 75.7959L422.384 89.7127L431.011 78.2448L442.728 59.1914L449.938 61.2819L443.178 77.4086L438.35 85.472L468.994 72.0331L472.985 78.3045L441.891 94.4313L476.783 87.7416L477.814 94.8493L444.981 103.152L474.08 105.899L472.213 112.171L439.831 111.334L430.946 124.116L407.77 109.304Z" fill="#383838"/>
<path d="M407.77 109.304L430.946 124.116L390.002 213.53L296.911 242.319L286.611 165.628L307.663 182.889L366.118 179.306L407.77 109.304Z" fill="url(#paint0_linear_108_1394)"/>
<g style="mix-blend-mode:screen" opacity="0.19">
<path d="M407.77 109.304L366.118 179.306L307.663 182.889L286.611 165.628L299.873 203.675L370.817 193.76L419.616 116.889L407.77 109.304Z" fill="white"/>
</g>
<path d="M70.0433 109.304L63.6698 97.776L74.5497 79.8575L70.0433 75.7959L55.4939 89.7127L46.8672 78.2448L35.1504 59.1914L27.9401 61.2819L34.6997 77.4086L39.5281 85.472L8.8842 72.0331L4.89279 78.3045L35.9874 94.4313L1.09441 87.7416L0 94.8493L32.8972 103.152L3.79838 105.899L5.6653 112.171L38.0474 111.334L46.9316 124.116L70.0433 109.304Z" fill="#383838"/>
<path d="M70.0433 109.304L46.9316 124.116L87.876 213.53L180.967 242.319L191.267 165.628L170.215 182.889L111.76 179.306L70.0433 109.304Z" fill="url(#paint1_linear_108_1394)"/>
<path d="M291.89 357.654L320.345 408.244L378.092 434.047L466.676 410.633L514.573 320.563L522.556 228.88L520.883 204.391L502.406 184.322L481.29 198.239L470.024 223.803L455.603 308.617L430.109 358.67L410.539 371.511L374.551 382.8L339.143 357.176L291.89 357.654Z" fill="url(#paint2_linear_108_1394)"/>
<path d="M470.024 223.803L522.556 228.88L520.174 257.49L465.904 248.351L470.024 223.803Z" fill="#383838"/>
<path d="M462.491 268.121L518.05 280.604L515.41 311.484L457.728 295.835L462.491 268.121Z" fill="#383838"/>
<path d="M491.204 364.583L438.157 343.2L450.131 319.189L505.367 338.004L491.204 364.583Z" fill="#383838"/>
<path d="M466.676 410.635L445.367 416.309L410.539 371.513L430.109 358.671L474.401 396.121L466.676 410.635Z" fill="#383838"/>
<path d="M378.092 434.047L374.938 382.681L395.796 376.29L408.221 426.104L378.092 434.047Z" fill="#383838"/>
<path d="M320.409 408.303L349.122 364.522L365.474 376.229L347.384 420.249L320.409 408.303Z" fill="#383838"/>
<path d="M291.89 357.655L296.59 340.872L341.268 332.928L339.336 353.952L300.839 373.483L291.89 357.655Z" fill="#383838"/>
<g style="mix-blend-mode:multiply" opacity="0.19">
<path d="M301.997 322.534L291.89 357.654L320.345 408.244L378.092 434.047L466.676 410.633L514.573 320.563L522.556 228.88L520.883 204.391L502.406 184.322L507.685 204.63L505.818 232.284L492.427 314.291L452.127 395.821L377.384 412.724L331.354 389.728L314.808 357.356L311.332 326.118L301.997 322.534Z" fill="black"/>
</g>
<path d="M310.624 327.731L271.225 397.375L291.89 406.513L282.941 423.954L355.367 443.007L375.903 440.558L366.955 417.324L324.079 404.064L352.663 380.83L377.706 329.404L362.77 300.316L332.641 298.285L310.624 327.731Z" fill="url(#paint3_linear_108_1394)"/>
<g style="mix-blend-mode:multiply" opacity="0.39">
<path d="M332.641 298.285L363.028 300.674L377.706 329.643L352.663 381.069L324.079 404.303L311.203 405.139L342.491 374.797L366.568 327.791L358.07 306.289L332.641 298.285Z" fill="#CDC7C6"/>
</g>
<path d="M166.932 327.73L206.332 397.373L185.666 406.512L194.615 423.953L122.19 443.006L101.653 440.557L110.601 417.323L153.477 404.063L124.893 380.829L99.8503 329.402L114.271 300.195L145.687 298.762L166.932 327.73Z" fill="url(#paint4_linear_108_1394)"/>
<path d="M303.864 215.681L284.293 157.326L261.375 127.223H258.091H219.722H216.439L193.585 157.326L173.95 215.681L165.773 338.602L199.25 400.54L219.722 407.11H258.091L280.817 401.376L312.04 338.602L303.864 215.681Z" fill="url(#paint5_linear_108_1394)"/>
<path d="M216.439 127.223L193.585 157.326L173.949 215.681L166.095 325.939L173.949 339.08L192.297 216.636L206.46 158.819L216.439 127.223Z" fill="#383838"/>
<path d="M261.439 127.223L284.293 157.326L303.929 215.681L311.718 325.939L303.864 339.08L285.581 216.636L271.418 158.819L261.439 127.223Z" fill="#383838"/>
<path d="M206.46 158.819L197.512 195.91L213.284 219.563L194.744 287.235L240.838 376.947L284.293 290.341L266.654 221.832L279.207 192.028L270.13 156.37L240.13 188.922L206.46 158.819Z" fill="white"/>
<g style="mix-blend-mode:multiply" opacity="0.39">
<path d="M145.687 298.762L114.271 300.195L99.8503 329.402L124.893 380.829L153.477 404.063L166.61 405.138L135.065 374.557L110.988 327.551L119.486 306.049L145.687 298.762Z" fill="#CDC7C6"/>
</g>
<g style="mix-blend-mode:multiply" opacity="0.39">
<path d="M199.25 400.539L177.555 360.401L206.396 386.562L241.353 396.716L271.225 386.981L300.903 361.297L280.817 401.375L258.091 407.109H219.722L199.25 400.539Z" fill="#CDC7C6"/>
</g>
<g style="mix-blend-mode:multiply" opacity="0.74">
<path d="M204.722 142.632L223.649 156.011H252.619L271.739 141.02L275.86 146.276L253.842 168.793H222.683L200.022 148.725L204.722 142.632Z" fill="#CDC7C6"/>
</g>
<path d="M153.477 404.063L166.61 405.139L185.666 406.512L194.615 423.953L122.19 443.006L101.653 440.558L110.601 417.323L153.477 404.063Z" fill="#383838"/>
<path d="M291.89 406.512L311.203 405.138L324.079 404.302L366.955 417.323L375.903 440.557L355.367 443.006L282.941 423.952L291.89 406.512Z" fill="#383838"/>
<path d="M165.323 103.45L195.258 61.3411L147.941 0L132.747 28.1918L136.352 82.8434L165.323 103.45Z" fill="url(#paint6_linear_108_1394)"/>
<path d="M179.55 83.3213L183.413 77.7665L149.55 22.458L150.323 68.7476L173.113 99.3285L179.55 83.3213Z" fill="url(#paint7_linear_108_1394)"/>
<g style="mix-blend-mode:screen" opacity="0.19">
<path d="M147.941 0L195.259 61.3411L186.825 73.2271L147.941 0Z" fill="white"/>
</g>
<path d="M305.023 103.45L275.087 61.3411L322.341 2.20996L332.062 38.7638L333.993 82.8434L305.023 103.45Z" fill="url(#paint8_linear_108_1394)"/>
<path d="M290.795 83.3213L286.933 77.7665L321.117 22.0996L318.8 68.7475L296.01 100.463L290.795 83.3213Z" fill="url(#paint9_linear_108_1394)"/>
<g style="mix-blend-mode:screen" opacity="0.19">
<path d="M322.341 2.20996L275.087 61.3411L283.521 73.2271L322.341 2.20996Z" fill="white"/>
</g>
<path d="M280.688 54.4727H237.684H232.598H189.529L158.37 98.1342L163.392 131.224L221.782 191.848H235.237H238.649H252.104L299.293 132.777L309.53 100.105L280.688 54.4727Z" fill="url(#paint10_linear_108_1394)"/>
<path d="M203.113 84.6349L232.662 65.0439L268.778 89.891L251.01 107.511L247.405 121.248L233.177 132.238L221.267 124.414L218.692 107.511L203.113 84.6349Z" fill="#F9F9F9"/>
<g style="mix-blend-mode:screen" opacity="0.19">
<path d="M280.431 54.473L309.53 100.106L299.293 132.777L252.104 191.849H242.319L250.237 187.429L287.834 131.224L301.74 102.017L270.323 54.3535L280.431 54.473Z" fill="white"/>
</g>
<path d="M220.43 119.279L209.035 134.569L213.22 150.815L253.456 150.457L258.864 134.987L245.731 118.144L233.95 110.678L220.43 119.279Z" fill="#AA9F9F"/>
<path d="M266.718 72.3906L246.117 104.763L244.057 119.576L270.323 127.699L297.684 110.378L266.718 72.3906Z" fill="#383838"/>
<path d="M230.151 124.773L232.598 107.75H234.529L237.297 125.191L244.894 136.897L253.456 150.456L247.083 188.383L235.624 191.43L223.585 187.965L213.22 150.814L221.267 138.092L230.151 124.773Z" fill="#383838"/>
<path d="M233.242 128.476L221.589 134.15L221.718 144.722L245.86 144.483L245.731 133.552L233.242 128.476Z" fill="black"/>
<path d="M213.22 150.814L233.757 156.25L253.456 150.456L247.469 186.651L235.43 189.757L223.134 186.293L213.22 150.814Z" fill="black"/>
<path d="M233.569 134.261L225.329 134.347L225.356 136.557L233.596 136.471L233.569 134.261Z" fill="white"/>
<g style="mix-blend-mode:multiply" opacity="0.07">
<path d="M158.37 98.1342L189.529 54.4727H211.031L193.907 57.7576L164.229 101.061L169.701 127.521L224.486 189.041L235.237 191.848H221.782L163.392 131.224L158.37 98.1342Z" fill="#4C4C4C"/>
</g>
<path d="M235.559 187.607L245.409 185.158L250.946 151.292L233.757 156.249L216.246 151.591L225.065 184.74L235.559 187.607Z" fill="url(#paint11_linear_108_1394)"/>
<path d="M195.773 73.0479L218.95 103.987L222.748 119.278L191.718 126.744L168.928 106.376L195.773 73.0479Z" fill="#383838"/>
<path d="M189.529 54.4727H280.688L293.757 75.3776L233.242 63.85L176.718 72.5106L189.529 54.4727Z" fill="#383838"/>
<g style="mix-blend-mode:multiply" opacity="0.46">
<path d="M206.203 87.7412H185.409L175.044 103.987L185.409 120.234H206.203L216.632 103.987L206.203 87.7412Z" fill="#6B6B6B"/>
</g>
<path d="M205.495 88.6982H186.374L176.782 104.048L186.374 119.458H205.495L215.087 104.048L205.495 88.6982Z" fill="#FF9D00"/>
<path d="M186.374 88.6982L176.782 104.048L183.22 114.382H201.439L208.456 103.451L199.121 88.6982H186.374Z" fill="#FFBC00"/>
<path d="M198.22 101.598H194.808L193.134 104.226L194.808 106.854H198.22L199.894 104.226L198.22 101.598Z" fill="black"/>
<path d="M188.306 91.6826L191.138 95.1469L185.666 103.867L180.967 103.569L188.306 91.6826Z" fill="white"/>
<g style="mix-blend-mode:multiply" opacity="0.46">
<path d="M278.692 87.7412H257.898L247.469 103.987L257.898 120.234H278.692L289.057 103.987L278.692 87.7412Z" fill="#6B6B6B"/>
</g>
<path d="M277.984 88.6982H258.8L249.271 104.048L258.8 119.458H277.984L287.576 104.048L277.984 88.6982Z" fill="#FF9D00"/>
<path d="M258.799 88.6982L249.271 104.048L255.645 114.382H273.928L280.946 103.451L271.611 88.6982H258.799Z" fill="#FFBC00"/>
<path d="M270.645 101.598H267.298L265.624 104.226L267.298 106.854H270.645L272.383 104.226L270.645 101.598Z" fill="black"/>
<path d="M260.795 91.6826L263.628 95.1469L258.156 103.867L253.456 103.569L260.795 91.6826Z" fill="white"/>
<path d="M213.22 150.814L203.821 147.529L217.276 165.328L213.22 150.814Z" fill="black"/>
<path d="M253.328 150.517L262.727 147.231L250.946 165.628L253.328 150.517Z" fill="black"/>
<g style="mix-blend-mode:screen" opacity="0.19">
<path d="M70.0431 109.304L111.76 179.306L170.215 182.889L191.267 165.628L177.941 203.675L107.061 193.76L58.262 116.889L70.0431 109.304Z" fill="white"/>
</g>
<defs>
<linearGradient id="paint0_linear_108_1394" x1="359.487" y1="128.357" x2="355.718" y2="231.829" gradientUnits="userSpaceOnUse">
<stop stop-color="#BCB7A4"/>
<stop offset="1" stop-color="#6B6968"/>
</linearGradient>
<linearGradient id="paint1_linear_108_1394" x1="118.391" y1="128.357" x2="122.16" y2="231.829" gradientUnits="userSpaceOnUse">
<stop stop-color="#BCB7A4"/>
<stop offset="1" stop-color="#6B6968"/>
</linearGradient>
<linearGradient id="paint2_linear_108_1394" x1="384.748" y1="242.029" x2="458.962" y2="397.287" gradientUnits="userSpaceOnUse">
<stop stop-color="#ACA9A4"/>
<stop offset="1" stop-color="#F3E3D8"/>
</linearGradient>
<linearGradient id="paint3_linear_108_1394" x1="324.852" y1="388.117" x2="322.746" y2="224.158" gradientUnits="userSpaceOnUse">
<stop stop-color="#ACA9A4"/>
<stop offset="1" stop-color="#F3E3D8"/>
</linearGradient>
<linearGradient id="paint4_linear_108_1394" x1="153.477" y1="390.266" x2="151.427" y2="226.307" gradientUnits="userSpaceOnUse">
<stop stop-color="#ACA9A4"/>
<stop offset="1" stop-color="#F3E3D8"/>
</linearGradient>
<linearGradient id="paint5_linear_108_1394" x1="239.679" y1="389.192" x2="237.574" y2="225.233" gradientUnits="userSpaceOnUse">
<stop stop-color="#ACA9A4"/>
<stop offset="1" stop-color="#F3E3D8"/>
</linearGradient>
<linearGradient id="paint6_linear_108_1394" x1="185.087" y1="90.7873" x2="128.918" y2="15.7109" gradientUnits="userSpaceOnUse">
<stop stop-color="#F0EDE1"/>
<stop offset="1" stop-color="#9F9F9F"/>
</linearGradient>
<linearGradient id="paint7_linear_108_1394" x1="108.735" y1="-8.95916" x2="185.034" y2="108.765" gradientUnits="userSpaceOnUse">
<stop stop-color="#D66D89"/>
<stop offset="1" stop-color="#F2ADB3"/>
</linearGradient>
<linearGradient id="paint8_linear_108_1394" x1="285.903" y1="91.1457" x2="340.959" y2="17.5842" gradientUnits="userSpaceOnUse">
<stop stop-color="#F0EDE1"/>
<stop offset="1" stop-color="#9F9F9F"/>
</linearGradient>
<linearGradient id="paint9_linear_108_1394" x1="362.641" y1="-10.5121" x2="284.253" y2="110.465" gradientUnits="userSpaceOnUse">
<stop stop-color="#D66D89"/>
<stop offset="1" stop-color="#F2ADB3"/>
</linearGradient>
<linearGradient id="paint10_linear_108_1394" x1="233.95" y1="54.0546" x2="233.95" y2="146.096" gradientUnits="userSpaceOnUse">
<stop stop-color="#ACA9A4"/>
<stop offset="1" stop-color="#F3DCCF"/>
</linearGradient>
<linearGradient id="paint11_linear_108_1394" x1="233.563" y1="162.76" x2="233.563" y2="190.116" gradientUnits="userSpaceOnUse">
<stop stop-color="#D64269"/>
<stop offset="1" stop-color="#F27C86"/>
</linearGradient>
</defs>
</svg>
