<svg width="825" height="576" viewBox="0 0 825 576" fill="none" xmlns="http://www.w3.org/2000/svg">
<g clip-path="url(#clip0_342_237)">
<rect x="94" width="731" height="466" rx="10" fill="#FEFEFE"/>
<rect width="731" height="42" transform="translate(94)" fill="#F5F6F7"/>
<rect x="115" y="16" width="12" height="12" rx="6" fill="#DFE1E5"/>
<rect x="135" y="16" width="12" height="12" rx="6" fill="#DFE1E5"/>
<rect x="155" y="16" width="12" height="12" rx="6" fill="#DFE1E5"/>
<g clip-path="url(#clip1_342_237)">
<rect width="731" height="36" transform="translate(94 42)" fill="white"/>
<path fill-rule="evenodd" clip-rule="evenodd" d="M215 55C213.619 55 212.5 56.1193 212.5 57.5V58.5H212C211.448 58.5 211 58.9477 211 59.5V64.5C211 65.0523 211.448 65.5 212 65.5H218C218.552 65.5 219 65.0523 219 64.5V59.5C219 58.9477 218.552 58.5 218 58.5H217.5V57.5C217.5 56.1193 216.381 55 215 55ZM216.5 58.5V57.5C216.5 56.6716 215.828 56 215 56C214.172 56 213.5 56.6716 213.5 57.5V58.5H216.5Z" fill="#E0E1E1"/>
<path fill-rule="evenodd" clip-rule="evenodd" d="M662.442 53.5581C662.198 53.314 661.802 53.314 661.558 53.5581L659.558 55.5581C659.314 55.8021 659.314 56.1979 659.558 56.4419C659.802 56.686 660.198 56.686 660.442 56.4419L661.375 55.5089V62C661.375 62.3452 661.655 62.625 662 62.625C662.345 62.625 662.625 62.3452 662.625 62V55.5089L663.558 56.4419C663.802 56.686 664.198 56.686 664.442 56.4419C664.686 56.1979 664.686 55.8021 664.442 55.5581L662.442 53.5581ZM657.625 59.5C657.625 59.0168 658.017 58.625 658.5 58.625H659.5C659.845 58.625 660.125 58.3452 660.125 58C660.125 57.6548 659.845 57.375 659.5 57.375H658.5C657.326 57.375 656.375 58.3264 656.375 59.5V65.5C656.375 66.6736 657.326 67.625 658.5 67.625H665.5C666.674 67.625 667.625 66.6736 667.625 65.5V59.5C667.625 58.3264 666.674 57.375 665.5 57.375H664.5C664.155 57.375 663.875 57.6548 663.875 58C663.875 58.3452 664.155 58.625 664.5 58.625H665.5C665.983 58.625 666.375 59.0168 666.375 59.5V65.5C666.375 65.9832 665.983 66.375 665.5 66.375H658.5C658.017 66.375 657.625 65.9832 657.625 65.5V59.5Z" fill="#E0E1E1"/>
<path fill-rule="evenodd" clip-rule="evenodd" d="M693.382 53.8798C693.576 53.281 694.424 53.281 694.618 53.8798L695.913 57.8662H700.105C700.735 57.8662 700.996 58.6719 700.487 59.042L697.096 61.5057L698.391 65.4921C698.586 66.0909 697.9 66.5889 697.391 66.2188L694 63.7551L690.609 66.2188C690.1 66.5889 689.414 66.0909 689.609 65.4921L690.904 61.5057L687.513 59.042C687.004 58.6719 687.265 57.8662 687.895 57.8662H692.087L693.382 53.8798ZM694 56.0223L693.141 58.667C693.054 58.9348 692.804 59.1162 692.523 59.1162H689.742L691.991 60.7507C692.219 60.9162 692.315 61.2096 692.228 61.4774L691.368 64.1221L693.618 62.4876C693.846 62.3221 694.154 62.3221 694.382 62.4876L696.632 64.1221L695.773 61.4774C695.686 61.2096 695.781 60.9162 696.009 60.7507L698.258 59.1162H695.478C695.196 59.1162 694.946 58.9348 694.859 58.667L694 56.0223Z" fill="#E0E1E1"/>
<rect x="197.5" y="49.5" width="514" height="21" rx="10.5" stroke="#F3F3F3"/>
<path fill-rule="evenodd" clip-rule="evenodd" d="M780 53H766V67H780V53ZM775 55H768V65H775V55Z" fill="#E0E1E1"/>
<path fill-rule="evenodd" clip-rule="evenodd" d="M805 55C805 55.8284 804.328 56.5 803.5 56.5C802.672 56.5 802 55.8284 802 55C802 54.1716 802.672 53.5 803.5 53.5C804.328 53.5 805 54.1716 805 55ZM805 60.25C805 61.0784 804.328 61.75 803.5 61.75C802.672 61.75 802 61.0784 802 60.25C802 59.4216 802.672 58.75 803.5 58.75C804.328 58.75 805 59.4216 805 60.25ZM803.5 67C804.328 67 805 66.3284 805 65.5C805 64.6716 804.328 64 803.5 64C802.672 64 802 64.6716 802 65.5C802 66.3284 802.672 67 803.5 67Z" fill="#E0E1E1"/>
<g filter="url(#filter0_d_342_237)">
<rect x="94" y="42" width="65" height="65" rx="32.5" fill="white"/>
<rect x="93.5" y="41.5" width="66" height="66" rx="33" stroke="#FAFAFA"/>
</g>
<g clip-path="url(#clip2_342_237)">
<rect x="730" y="51" width="19" height="19" rx="9.5" fill="#FF6201"/>
<path d="M745.724 69.1991C745.724 71.958 742.62 71.9324 739.273 71.9324C735.926 71.9324 733.603 71.958 733.603 69.1991C733.603 66.4402 736.317 64.2036 739.664 64.2036C743.011 64.2036 745.724 66.4402 745.724 69.1991Z" fill="white"/>
<path d="M745.724 69.3192C745.724 72.1445 744.404 65.2653 739.664 65.2653C734.63 65.2653 733.603 72.1445 733.603 69.3192C733.603 66.494 736.317 64.2036 739.664 64.2036C743.011 64.2036 745.724 66.494 745.724 69.3192Z" fill="#323C1D"/>
<path d="M733.448 57.1528H745.83L745.026 62.6953L742.453 65.8928L736.986 65.6264L733.77 62.6953L733.448 57.1528Z" fill="white"/>
<path d="M733.448 57.1528H745.83V58.4638L739.348 60.576L733.448 58.391V57.1528Z" fill="#BCBCBC"/>
<circle cx="736.944" cy="60.7944" r="0.874" fill="#FF6201"/>
<circle cx="741.897" cy="60.7944" r="0.874" fill="#FF6201"/>
<path fill-rule="evenodd" clip-rule="evenodd" d="M732.137 58.078C732.137 59.3495 732.165 60.2998 732.207 60.5034C732.313 61.0143 732.671 61.7034 733.037 62.1033C733.314 62.4052 733.385 62.5356 733.481 62.9115C733.658 63.6061 734.043 64.2221 734.734 64.9159C735.065 65.2481 735.507 65.631 735.716 65.7667C738.055 67.2855 740.806 67.2946 743.061 65.791C743.782 65.3104 744.576 64.522 744.923 63.9418C745.157 63.5507 745.437 62.8346 745.437 62.6279C745.437 62.5559 745.587 62.3359 745.77 62.1388C745.953 61.9418 746.194 61.6085 746.307 61.3982C746.669 60.7208 746.702 60.4408 746.703 58.0969L746.704 55.9873L745.897 56.0279C745.453 56.0501 744.882 56.11 744.629 56.1607C744.058 56.2752 743.175 56.6296 742.736 56.92L742.405 57.1392L742.037 57.0129C740.538 56.4986 738.186 56.5022 736.796 57.0208L736.456 57.148L736.063 56.895C735.236 56.3619 734.275 56.0947 732.945 56.0279L732.137 55.9873V58.078ZM744.472 57.8235C744.349 58.1573 744.335 58.3545 744.301 60.3644C744.26 62.7981 744.28 62.6791 743.764 63.4499C743.416 63.9696 743.012 64.3641 742.404 64.7787C741.937 65.0979 741.827 65.1252 741.827 64.9229C741.827 64.4473 740.794 63.4338 739.688 62.8252C739.421 62.6778 739.415 62.6774 739.213 62.7923C738.106 63.4231 737.212 64.2386 737.061 64.7564C737.014 64.9154 736.961 65.051 736.943 65.0577C736.864 65.0861 736.093 64.5577 735.747 64.2377C735.363 63.8836 734.885 63.2281 734.688 62.7868C734.595 62.5784 734.574 62.2298 734.541 60.3644C734.506 58.3561 734.492 58.1569 734.368 57.8222C734.238 57.4695 734.238 57.459 734.355 57.459C734.725 57.459 735.732 57.9857 735.992 58.3145C736.25 58.6418 736.236 58.7501 735.886 59.1323C735.454 59.6037 735.244 60.0498 735.198 60.5953C735.1 61.7657 735.861 62.6368 736.982 62.6368C737.538 62.6368 737.952 62.4578 738.318 62.0597C738.694 61.6522 738.811 61.3003 738.773 60.697C738.731 60.0217 738.524 59.585 738.002 59.0639L737.593 58.6562L737.76 58.5471C737.875 58.4717 738.048 58.4394 738.319 58.4426C738.729 58.4472 738.909 58.5238 739.247 58.8372L739.421 58.9991L739.627 58.8051C739.74 58.6983 739.904 58.5742 739.991 58.5293C740.231 58.4054 740.881 58.416 741.082 58.5471L741.249 58.6562L740.84 59.0639C740.303 59.5989 740.103 60.0275 740.066 60.7175C740.034 61.3195 740.145 61.637 740.538 62.0715C740.886 62.457 741.307 62.6368 741.859 62.6368C742.415 62.6368 742.829 62.4578 743.196 62.0585C743.908 61.2853 743.808 60.0614 742.956 59.1323C742.697 58.8496 742.645 58.7553 742.677 58.6282C742.739 58.3786 743.059 58.0637 743.473 57.8439C743.889 57.6227 744.493 57.3971 744.563 57.4369C744.587 57.4506 744.546 57.6245 744.472 57.8235ZM737.399 60.4227C737.642 60.6646 737.65 60.9719 737.42 61.2437C737.284 61.4055 737.21 61.4381 736.982 61.4381C736.755 61.4381 736.681 61.4055 736.545 61.2437C736.315 60.9719 736.323 60.6646 736.566 60.4227C736.821 60.1679 737.144 60.1679 737.399 60.4227ZM742.276 60.4227C742.518 60.6646 742.526 60.9719 742.297 61.2437C742.16 61.4055 742.087 61.4381 741.859 61.4381C741.631 61.4381 741.558 61.4055 741.421 61.2437C741.192 60.9719 741.2 60.6646 741.443 60.4227C741.698 60.1679 742.02 60.1679 742.276 60.4227Z" fill="#323C1D"/>
<ellipse cx="737.017" cy="60.8671" rx="0.364167" ry="0.364167" fill="#323C1D"/>
<ellipse cx="741.824" cy="60.8671" rx="0.364167" ry="0.364167" fill="#323C1D"/>
</g>
</g>
<rect width="731" height="1" transform="translate(94 78)" fill="#F2F2F2"/>
<rect x="155" y="106" width="269" height="254" rx="16" fill="#F5F6F6"/>
<rect x="466" y="288" width="128" height="102" rx="16" fill="#F5F6F6"/>
<rect x="620" y="288" width="128" height="102" rx="16" fill="#F5F6F6"/>
<rect x="466" y="106" width="269" height="14" rx="7" fill="#F5F6F6"/>
<rect x="466" y="130" width="183" height="14" rx="7" fill="#F5F6F6"/>
<rect x="466" y="171" width="152" height="14" rx="7" fill="#F5F6F6"/>
<rect x="466" y="197" width="152" height="14" rx="7" fill="#F5F6F6"/>
<rect x="466" y="223" width="152" height="14" rx="7" fill="#F5F6F6"/>
<rect x="466" y="409" width="126" height="14" rx="7" fill="#F5F6F6"/>
<rect x="618" y="409" width="126" height="14" rx="7" fill="#F5F6F6"/>
<rect width="49" height="46" rx="16" transform="matrix(1 0 0 -1 169 422)" fill="#F5F6F6"/>
<rect width="49" height="46" rx="16" transform="matrix(1 0 0 -1 233 422)" fill="#F5F6F6"/>
<rect width="49" height="46" rx="16" transform="matrix(1 0 0 -1 297 422)" fill="#F5F6F6"/>
<rect width="49" height="46" rx="16" transform="matrix(1 0 0 -1 361 422)" fill="#F5F6F6"/>
<g filter="url(#filter1_d_342_237)">
<rect x="753" y="201" width="65" height="65" rx="32.5" fill="white"/>
<g clip-path="url(#clip3_342_237)">
<rect x="757" y="204" width="58" height="59" rx="29" fill="#FF6201"/>
<path d="M805 260.512C805 269.079 795.524 269 785.306 269C775.089 269 768 269.079 768 260.512C768 251.945 776.283 245 786.5 245C796.717 245 805 251.945 805 260.512Z" fill="white"/>
<path d="M805 260.885C805 269.659 800.972 248.297 786.5 248.297C771.133 248.297 768 269.659 768 260.885C768 252.112 776.283 245 786.5 245C796.717 245 805 252.112 805 260.885Z" fill="#323C1D"/>
<path d="M767.527 223.106H805.324L802.869 240.317L795.015 250.246L778.326 249.419L768.509 240.317L767.527 223.106Z" fill="white"/>
<path d="M767.527 223.106H805.324V227.177L785.536 233.736L767.527 226.951V223.106Z" fill="#BCBCBC"/>
<ellipse cx="778.199" cy="234.415" rx="2.668" ry="2.714" fill="#FF6201"/>
<ellipse cx="793.318" cy="234.415" rx="2.668" ry="2.714" fill="#FF6201"/>
<path fill-rule="evenodd" clip-rule="evenodd" d="M763.525 225.979C763.525 229.928 763.608 232.879 763.737 233.511C764.061 235.097 765.152 237.237 766.271 238.479C767.116 239.417 767.334 239.822 767.627 240.989C768.167 243.146 769.342 245.058 771.452 247.213C772.462 248.244 773.81 249.433 774.448 249.855C781.59 254.571 789.988 254.6 796.871 249.93C799.071 248.438 801.494 245.99 802.555 244.188C803.269 242.974 804.125 240.75 804.125 240.108C804.125 239.885 804.582 239.201 805.14 238.589C805.698 237.977 806.436 236.943 806.779 236.289C807.883 234.186 807.986 233.317 807.989 226.038L807.992 219.487L805.527 219.613C804.171 219.682 802.43 219.868 801.657 220.026C799.915 220.381 797.219 221.482 795.88 222.384L794.87 223.064L793.746 222.672C789.17 221.075 781.99 221.086 777.747 222.697L776.707 223.092L775.509 222.306C772.984 220.651 770.05 219.821 765.99 219.613L763.525 219.487V225.979ZM801.179 225.189C800.801 226.226 800.761 226.838 800.656 233.079C800.529 240.637 800.593 240.267 799.016 242.661C797.954 244.274 796.722 245.499 794.866 246.787C793.438 247.778 793.105 247.863 793.105 247.235C793.105 245.758 789.95 242.611 786.575 240.721C785.758 240.263 785.74 240.262 785.125 240.619C781.745 242.577 779.016 245.11 778.554 246.718C778.412 247.211 778.25 247.632 778.194 247.653C777.954 247.742 775.6 246.101 774.542 245.107C773.372 244.007 771.912 241.972 771.311 240.601C771.027 239.954 770.962 238.872 770.862 233.079C770.754 226.843 770.713 226.224 770.335 225.185C769.938 224.09 769.936 224.057 770.295 224.057C771.423 224.057 774.499 225.693 775.291 226.714C776.079 227.73 776.036 228.067 774.966 229.253C773.648 230.717 773.008 232.102 772.868 233.796C772.568 237.431 774.892 240.136 778.315 240.136C780.009 240.136 781.275 239.58 782.393 238.344C783.538 237.078 783.897 235.985 783.781 234.112C783.651 232.015 783.022 230.659 781.427 229.041L780.179 227.775L780.688 227.436C781.041 227.202 781.568 227.102 782.396 227.112C783.647 227.126 784.196 227.364 785.228 228.337L785.76 228.84L786.388 228.237C786.733 227.906 787.233 227.52 787.498 227.381C788.231 226.996 790.216 227.029 790.828 227.436L791.338 227.775L790.09 229.041C788.452 230.702 787.84 232.033 787.729 234.176C787.632 236.045 787.969 237.031 789.168 238.38C790.232 239.577 791.515 240.136 793.202 240.136C794.898 240.136 796.162 239.58 797.284 238.34C799.456 235.939 799.149 232.138 796.55 229.253C795.759 228.376 795.6 228.083 795.697 227.688C795.889 226.913 796.865 225.935 798.127 225.252C799.397 224.566 801.242 223.865 801.455 223.989C801.528 224.031 801.404 224.571 801.179 225.189ZM779.587 233.26C780.327 234.012 780.351 234.966 779.651 235.81C779.235 236.312 779.011 236.413 778.315 236.413C777.619 236.413 777.396 236.312 776.979 235.81C776.279 234.966 776.303 234.012 777.043 233.26C777.823 232.469 778.807 232.469 779.587 233.26ZM794.473 233.26C795.214 234.012 795.238 234.966 794.538 235.81C794.121 236.312 793.897 236.413 793.202 236.413C792.506 236.413 792.282 236.312 791.866 235.81C791.165 234.966 791.189 234.012 791.93 233.26C792.71 232.469 793.693 232.469 794.473 233.26Z" fill="#323C1D"/>
<ellipse cx="778.421" cy="234.641" rx="1.11167" ry="1.13083" fill="#323C1D"/>
<ellipse cx="793.095" cy="234.641" rx="1.11167" ry="1.13083" fill="#323C1D"/>
</g>
<rect x="752.5" y="200.5" width="66" height="66" rx="33" stroke="#FAFAFA"/>
</g>
</g>
<rect x="94.5" y="0.5" width="730" height="465" rx="9.5" stroke="#E9E9E9"/>
<path d="M172.937 404.432L197.643 441.761L185.019 485.157L154.246 509.321L151.483 524.166L162.481 556.565H188.324L203.711 568.105L203.115 575.473H146.553L118 524.166L116.863 504.391L80.6174 432.984L139.401 396.738L172.937 404.432Z" fill="url(#paint0_linear_342_237)"/>
<path d="M242.123 476.38L222.348 556.022L227.278 575.472H277.556V567.562L264.932 560.411L245.97 556.293L271 526.116L291.859 492.037L242.123 476.38Z" fill="url(#paint1_linear_342_237)"/>
<path d="M268.237 397.28H214.655L111.39 384.656L69.0771 396.738L61.1129 453.3L110.578 480.769L210.537 500.002L293.213 495.072L326.75 464.84L337.152 413.75L298.414 377.775L268.237 397.28Z" fill="url(#paint2_linear_342_237)"/>
<path d="M336.069 498.322L326.75 464.84L293.755 440.676L265.745 442.843L269.592 494.475L318.515 546.703L359.69 575.472H402.004L406.392 566.478L389.922 559.869L369.009 555.48L336.069 498.322Z" fill="url(#paint3_linear_342_237)"/>
<path d="M116.321 404.432L141.08 441.761L128.403 485.157L86.6852 517.556L78.9919 534.081L94.3786 556.565H118L133.387 568.105L132.845 575.473H85.0057L37.2203 529.638L47.135 507.696L46.0514 423.665L69.0772 396.738L116.321 404.432Z" fill="url(#paint4_linear_342_237)"/>
<path d="M77.6374 407.574L40.471 364.123L43.0174 299.217L65.1764 264.868L113.449 247.964L162.264 261.238L177.271 275.758L195.53 283.939L219.856 283.56L214.763 258.854L201.056 238.212L184.531 225.264L113.666 207.385L41.988 224.18L11.5398 273.212L-0.000244391 304.364L5.74269 377.938L50.0606 443.657L77.6374 407.574Z" fill="url(#paint5_linear_342_237)"/>
<path d="M184.531 225.263L201.056 238.212L201.327 238.97L177.217 275.703L162.806 261.671L183.069 224.884L184.531 225.263Z" fill="#383838"/>
<path d="M152.241 217.082L140.484 255.278L118.65 249.373L125.747 210.418L152.241 217.082Z" fill="#383838"/>
<path d="M94.8662 211.773L101.801 251.702L81.4299 259.179L69.3482 217.787L94.8662 211.773Z" fill="#383838"/>
<path d="M41.7172 224.613L65.1223 264.922L53.9074 282.313L25.6804 250.402L41.7172 224.613Z" fill="#383838"/>
<path d="M-0.000573015 304.364L11.5395 273.211L43.0171 299.217L41.7168 317.204L-0.000573015 304.364Z" fill="#383838"/>
<path d="M2.0587 337.304L41.7173 335.191L40.7421 356.484L4.65924 361.36L2.0587 337.304Z" fill="#383838"/>
<path d="M12.4609 387.852L46.214 371.166L61.8716 389.099L28.3893 411.42L12.4609 387.852Z" fill="#383838"/>
<g style="mix-blend-mode:multiply" opacity="0.23">
<path d="M116.321 404.432L69.0774 396.738L46.3767 437.805L47.1351 507.696L37.2205 529.638L85.0058 575.473H96.8167L85.2226 567.021L58.7293 530.017L73.2491 516.202L107.327 482.828L126.236 437.426L116.321 404.432Z" fill="#CDC7C6"/>
</g>
<g style="mix-blend-mode:screen" opacity="0.19">
<path d="M219.856 283.56L214.763 258.854L201.056 238.212L184.531 225.264L113.666 207.385L41.7171 224.613L11.5398 273.212L-0.000244391 304.364L5.74269 377.938L46.3765 437.805L57.2663 418.681L21.4544 372.25L17.5536 307.398L26.7639 278.846L53.3655 239.133L112.908 223.205L177.759 238.158L197.588 251.757L207.774 266.764L219.856 283.56Z" fill="white"/>
</g>
<g style="mix-blend-mode:multiply" opacity="0.39">
<path d="M402.004 575.472H359.69L318.515 546.704L270.675 495.18L210.537 500.002L128.403 485.157L135.663 462.239L211.621 477.734L255.18 470.475L279.398 444.848L292.943 488.408L334.064 539.66L367.004 570.163L402.004 575.472Z" fill="#CDC7C6"/>
</g>
<g style="mix-blend-mode:screen" opacity="0.11">
<path d="M273.926 393.379L268.237 397.28H214.655L111.391 384.656L69.0773 396.738L115.346 392.079L214.059 412.396L272.138 410.933L284.22 402.264L273.926 393.379Z" fill="white"/>
</g>
<path d="M398.645 363.202L374.102 325.981L389.326 309.728L405.959 281.88L421.074 309.728L424 348.573L398.645 363.202Z" fill="url(#paint6_linear_342_237)"/>
<path d="M389.759 349.819L383.204 342.342L400.974 328.96L410.618 306.855L410.889 342.559L395.34 360.438L389.759 349.819Z" fill="url(#paint7_linear_342_237)"/>
<g style="mix-blend-mode:screen" opacity="0.19">
<path d="M405.958 281.88L389.326 309.728L374.102 325.981L380.115 335.625L395.665 315.796L405.958 281.88Z" fill="white"/>
</g>
<path d="M282.486 363.581L307.137 326.198L291.859 309.836L275.172 281.88L259.948 309.836L256.968 348.899L282.486 363.581Z" fill="url(#paint8_linear_342_237)"/>
<path d="M291.425 350.145L297.981 342.614L280.156 329.177L270.458 306.964L270.187 342.83L285.791 360.818L291.425 350.145Z" fill="url(#paint9_linear_342_237)"/>
<g style="mix-blend-mode:screen" opacity="0.19">
<path d="M275.172 281.88L291.859 309.836L307.137 326.198L301.069 335.896L285.466 315.958L275.172 281.88Z" fill="white"/>
</g>
<path d="M303.345 321.321H339.157H343.383H379.14L405.092 360.438L400.92 390.074L353.893 425.886H342.678H339.861H328.646L287.904 391.482L279.398 362.172L303.345 321.321Z" fill="url(#paint10_linear_342_237)"/>
<path d="M367.871 348.302L343.328 330.748L313.313 353.07L328.05 368.835L331.03 381.134L342.895 390.994L352.81 383.951L354.922 368.835L367.871 348.302Z" fill="#F9F9F9"/>
<g style="mix-blend-mode:screen" opacity="0.19">
<path d="M303.561 321.321L279.398 362.172L287.904 391.482L328.646 425.886H336.773L330.217 421.876L297.439 390.074L285.845 363.905L312.013 321.213L303.561 321.321Z" fill="white"/>
</g>
<path d="M353.514 379.401L362.995 393.054L359.474 407.628L325.991 407.303L321.549 393.433L332.438 378.317L342.245 371.653L353.514 379.401Z" fill="#AA9F9F"/>
<path d="M345.441 384.331L343.383 369.053H341.703L339.428 384.656L333.143 395.167L325.991 407.303L333.793 419.005L342.516 422.093L351.184 418.68L359.474 407.628L352.81 396.25L345.441 384.331Z" fill="#383838"/>
<path d="M342.786 387.582L352.539 392.674L352.43 402.21L332.33 401.993L332.438 392.187L342.786 387.582Z" fill="black"/>
<path d="M342.57 394.896L349.396 394.95V393L342.57 392.892V394.896Z" fill="white"/>
<g style="mix-blend-mode:multiply" opacity="0.07">
<path d="M405.092 360.438L379.14 321.321H361.316L375.51 324.247L400.162 363.039L395.665 386.769L351.564 423.339L342.678 425.886H353.893L400.92 390.074L405.092 360.438Z" fill="#4C4C4C"/>
</g>
<path d="M373.993 337.955L354.706 365.694L351.563 379.401L377.352 386.065L396.315 367.807L373.993 337.955Z" fill="#383838"/>
<path d="M310.334 337.955L329.567 365.694L332.763 379.401L306.92 386.065L288.012 367.807L310.334 337.955Z" fill="#383838"/>
<path d="M379.141 321.321H303.345L292.184 338.929L342.841 329.719L389.868 337.466L379.141 321.321Z" fill="#383838"/>
<path d="M359.257 407.79L342.353 411.149L326.208 407.465L332.601 417.001L342.462 419.764L352.539 416.676L359.257 407.79Z" fill="black"/>
<path opacity="0.38" d="M342.353 417.867L334.281 415.754L328.375 408.007L342.353 411.149L356.765 408.278L350.968 415.375L342.353 417.867Z" fill="#E8386F"/>
<path d="M366.625 403.402L363.32 406.924L356.765 408.278L355.248 410.229L364.404 408.441L368.901 403.565L366.625 403.402Z" fill="black"/>
<path d="M318.352 403.077L321.657 406.598L328.213 407.953L329.729 409.903L320.573 408.115L316.077 403.239L318.352 403.077Z" fill="black"/>
<path d="M350.968 415.376L342.353 412.288L334.281 415.755L333.631 436.018L342.732 444.307L352.376 435.801L350.968 415.376Z" fill="#A3274E"/>
<g style="mix-blend-mode:screen" opacity="0.08">
<path d="M342.353 412.288L342.733 444.307L333.631 436.018L334.281 415.755L342.353 412.288Z" fill="white"/>
</g>
<path d="M388.513 367.319L376.594 360.764L361.153 369.324L362.562 371.437L376.594 363.473L386.617 368.728L388.513 367.319Z" fill="#FFBC00"/>
<path d="M295.922 367.319L307.841 360.764L323.282 369.324L321.874 371.437L307.841 363.473L297.818 368.728L295.922 367.319Z" fill="#FFBC00"/>
<path d="M369.009 555.48L389.922 559.869L406.392 566.479L402.004 575.472H359.69L336.773 559.869L361.099 541.502L369.009 555.48Z" fill="#383838"/>
<path d="M245.97 556.293L264.932 560.411L277.556 567.562V575.472H227.278L222.348 556.022L225.22 542.749L252.959 548.058L245.97 556.293Z" fill="#383838"/>
<path d="M162.481 556.565H188.324L203.711 568.105L203.115 575.473H146.553L128.294 542.749L156.792 539.173L162.481 556.565Z" fill="#383838"/>
<path d="M133.387 568.104L118.001 556.564H94.3788L85.1142 543.073L56.779 548.491L85.0059 575.472H132.845L133.387 568.104Z" fill="#383838"/>
<defs>
<filter id="filter0_d_342_237" x="75" y="27" width="103" height="103" filterUnits="userSpaceOnUse" color-interpolation-filters="sRGB">
<feFlood flood-opacity="0" result="BackgroundImageFix"/>
<feColorMatrix in="SourceAlpha" type="matrix" values="0 0 0 0 0 0 0 0 0 0 0 0 0 0 0 0 0 0 127 0" result="hardAlpha"/>
<feOffset dy="4"/>
<feGaussianBlur stdDeviation="9"/>
<feComposite in2="hardAlpha" operator="out"/>
<feColorMatrix type="matrix" values="0 0 0 0 0 0 0 0 0 0 0 0 0 0 0 0 0 0 0.1 0"/>
<feBlend mode="normal" in2="BackgroundImageFix" result="effect1_dropShadow_342_237"/>
<feBlend mode="normal" in="SourceGraphic" in2="effect1_dropShadow_342_237" result="shape"/>
</filter>
<filter id="filter1_d_342_237" x="734" y="186" width="103" height="103" filterUnits="userSpaceOnUse" color-interpolation-filters="sRGB">
<feFlood flood-opacity="0" result="BackgroundImageFix"/>
<feColorMatrix in="SourceAlpha" type="matrix" values="0 0 0 0 0 0 0 0 0 0 0 0 0 0 0 0 0 0 127 0" result="hardAlpha"/>
<feOffset dy="4"/>
<feGaussianBlur stdDeviation="9"/>
<feComposite in2="hardAlpha" operator="out"/>
<feColorMatrix type="matrix" values="0 0 0 0 0 0 0 0 0 0 0 0 0 0 0 0 0 0 0.1 0"/>
<feBlend mode="normal" in2="BackgroundImageFix" result="effect1_dropShadow_342_237"/>
<feBlend mode="normal" in="SourceGraphic" in2="effect1_dropShadow_342_237" result="shape"/>
</filter>
<linearGradient id="paint0_linear_342_237" x1="153" y1="497.564" x2="170.879" y2="575.527" gradientUnits="userSpaceOnUse">
<stop stop-color="#82807C"/>
<stop offset="1" stop-color="#C9BCB3"/>
</linearGradient>
<linearGradient id="paint1_linear_342_237" x1="252.201" y1="594.922" x2="260.436" y2="476.38" gradientUnits="userSpaceOnUse">
<stop stop-color="#BCB7A4"/>
<stop offset="1" stop-color="#6B6968"/>
</linearGradient>
<linearGradient id="paint2_linear_342_237" x1="198.672" y1="408.224" x2="200.135" y2="488.083" gradientUnits="userSpaceOnUse">
<stop stop-color="#BCB7A4"/>
<stop offset="1" stop-color="#6B6968"/>
</linearGradient>
<linearGradient id="paint3_linear_342_237" x1="334.281" y1="405.731" x2="335.743" y2="485.59" gradientUnits="userSpaceOnUse">
<stop stop-color="#BCB7A4"/>
<stop offset="1" stop-color="#6B6968"/>
</linearGradient>
<linearGradient id="paint4_linear_342_237" x1="99.1463" y1="530.451" x2="61.3839" y2="361.089" gradientUnits="userSpaceOnUse">
<stop stop-color="#ACA9A4"/>
<stop offset="1" stop-color="#F3E3D8"/>
</linearGradient>
<linearGradient id="paint5_linear_342_237" x1="154.787" y1="518.044" x2="117.025" y2="348.682" gradientUnits="userSpaceOnUse">
<stop stop-color="#ACA9A4"/>
<stop offset="1" stop-color="#F3E3D8"/>
</linearGradient>
<linearGradient id="paint6_linear_342_237" x1="389.109" y1="359.355" x2="421.454" y2="287.514" gradientUnits="userSpaceOnUse">
<stop stop-color="#F0EDE1"/>
<stop offset="1" stop-color="#9F9F9F"/>
</linearGradient>
<linearGradient id="paint7_linear_342_237" x1="410.889" y1="333.62" x2="383.204" y2="333.62" gradientUnits="userSpaceOnUse">
<stop stop-color="#D66D89"/>
<stop offset="1" stop-color="#F2ADB3"/>
</linearGradient>
<linearGradient id="paint8_linear_342_237" x1="292.021" y1="359.734" x2="259.514" y2="287.569" gradientUnits="userSpaceOnUse">
<stop stop-color="#F0EDE1"/>
<stop offset="1" stop-color="#9F9F9F"/>
</linearGradient>
<linearGradient id="paint9_linear_342_237" x1="270.133" y1="333.891" x2="297.981" y2="333.891" gradientUnits="userSpaceOnUse">
<stop stop-color="#D66D89"/>
<stop offset="1" stop-color="#F2ADB3"/>
</linearGradient>
<linearGradient id="paint10_linear_342_237" x1="342.245" y1="320.996" x2="342.245" y2="391.049" gradientUnits="userSpaceOnUse">
<stop stop-color="#ACA9A4"/>
<stop offset="1" stop-color="#F3DCCF"/>
</linearGradient>
<clipPath id="clip0_342_237">
<rect x="94" width="731" height="466" rx="10" fill="white"/>
</clipPath>
<clipPath id="clip1_342_237">
<rect width="731" height="36" fill="white" transform="translate(94 42)"/>
</clipPath>
<clipPath id="clip2_342_237">
<rect x="730" y="51" width="19" height="19" rx="9.5" fill="white"/>
</clipPath>
<clipPath id="clip3_342_237">
<rect x="757" y="204" width="58" height="59" rx="29" fill="white"/>
</clipPath>
</defs>
</svg>
