<svg width="63" height="62" viewBox="0 0 63 62" fill="none" xmlns="http://www.w3.org/2000/svg">
<rect x="0.5" width="62" height="62" rx="16" fill="#FF873E"/>
<path d="M28.397 36.0271C28.196 35.8513 27.9732 35.7021 27.7342 35.5833C27.4645 35.4476 27.187 35.3281 26.903 35.2256C26.7058 35.1574 26.5375 35.0944 26.3982 35.0365C26.2759 34.9874 26.1582 34.9276 26.0464 34.8578C25.9607 34.8063 25.8889 34.7345 25.8374 34.6488C25.7912 34.5627 25.7683 34.466 25.7711 34.3684C25.7693 34.2849 25.7878 34.2023 25.8251 34.1277C25.8625 34.0531 25.9174 33.9886 25.9852 33.94C26.1969 33.8134 26.443 33.7564 26.6888 33.7769C27.0027 33.7756 27.3157 33.8098 27.6219 33.8788C27.8886 33.9377 28.1496 34.0196 28.4021 34.1236L28.7182 32.8999C28.5217 32.816 28.3188 32.7478 28.1114 32.6959C27.8118 32.6204 27.5066 32.5693 27.1987 32.543V31.4824H25.9138V32.5838C25.6433 32.6285 25.3816 32.7163 25.1388 32.8438C24.935 32.9515 24.7547 33.0989 24.6085 33.2772C24.4735 33.4452 24.3715 33.6372 24.3077 33.8431C24.2427 34.0528 24.2101 34.2712 24.2108 34.4907C24.2011 34.7334 24.2481 34.975 24.3482 35.1962C24.4482 35.4175 24.5985 35.6124 24.787 35.7654C24.9643 35.9107 25.1597 36.0324 25.3682 36.1274C25.5825 36.2261 25.8017 36.3161 26.026 36.3977C26.2571 36.4793 26.461 36.5558 26.6378 36.6271C26.7905 36.6864 26.9373 36.7598 27.0764 36.8464C27.1809 36.9107 27.2711 36.9957 27.3415 37.0962C27.4047 37.195 27.4366 37.3105 27.4333 37.4277C27.4374 37.5195 27.4186 37.611 27.3786 37.6938C27.3385 37.7766 27.2785 37.8481 27.2039 37.9018C26.9422 38.0389 26.6464 38.0974 26.3523 38.0701C25.9989 38.072 25.647 38.024 25.3071 37.9273C25.0148 37.8463 24.7299 37.7405 24.4556 37.6112L24.0171 38.784C24.2414 38.8896 24.4711 38.9832 24.7054 39.0644C25.0966 39.1927 25.5028 39.2698 25.9138 39.2938V40.5073H27.1987V39.2632C27.4918 39.2217 27.7761 39.1322 28.04 38.9982C28.2515 38.8888 28.4401 38.74 28.5958 38.5599C28.7345 38.3975 28.8386 38.2085 28.9017 38.0044C28.9623 37.808 28.9933 37.6036 28.9935 37.398C28.9994 37.1279 28.9455 36.8599 28.8355 36.6132C28.7308 36.39 28.5816 36.1905 28.397 36.0271Z" fill="white"/>
<path d="M33.2201 36.6673C33.093 37.9386 32.6076 39.1476 31.8204 40.154C31.0333 41.1603 29.9767 41.9225 28.7734 42.352C27.5702 42.7815 26.2697 42.8607 25.0233 42.5803C23.7768 42.2999 22.6355 41.6714 21.7321 40.768C20.8287 39.8646 20.2003 38.7234 19.9199 37.4769C19.6395 36.2304 19.7187 34.93 20.1482 33.7268C20.5777 32.5235 21.3399 31.4669 22.3462 30.6797C23.3526 29.8926 24.5616 29.4072 25.8329 29.2801C25.5747 28.4436 25.4173 27.5793 25.3642 26.7056C23.6237 26.9195 21.9783 27.6181 20.6156 28.7218C19.2529 29.8255 18.2277 31.2899 17.6569 32.948C17.0861 34.6061 16.9926 36.3912 17.3871 38.0999C17.7817 39.8085 18.6483 41.3719 19.8883 42.6119C21.1283 43.8519 22.6917 44.7185 24.4004 45.1131C26.109 45.5076 27.8941 45.4141 29.5522 44.8433C31.2103 44.2725 32.6747 43.2473 33.7784 41.8846C34.8821 40.5219 35.5807 38.8765 35.7947 37.136C34.9209 37.0829 34.0566 36.9255 33.2201 36.6673Z" fill="white"/>
<path d="M36.4942 16.647C34.6433 16.647 32.8339 17.1958 31.2949 18.2242C29.7559 19.2525 28.5564 20.7141 27.8481 22.4241C27.1398 24.1341 26.9545 26.0158 27.3156 27.8312C27.6767 29.6466 28.568 31.3141 29.8768 32.6229C31.1856 33.9317 32.8531 34.823 34.6685 35.1841C36.4838 35.5452 38.3655 35.3599 40.0756 34.6515C41.7856 33.9432 43.2472 32.7437 44.2755 31.2047C45.3038 29.6657 45.8527 27.8564 45.8527 26.0054C45.8499 23.5243 44.863 21.1456 43.1086 19.3911C41.3541 17.6367 38.9754 16.6498 36.4942 16.647ZM38.8916 28.0148C38.8273 28.2189 38.7228 28.408 38.5843 28.571C38.4283 28.7506 38.2396 28.899 38.0282 29.0083C37.7647 29.1432 37.4804 29.2326 37.1872 29.273V30.5176H35.9022V29.3043C35.4917 29.2809 35.0861 29.204 34.6956 29.0756C34.4613 28.9944 34.2315 28.9008 34.0071 28.7953L34.4444 27.6224C34.7195 27.7506 35.0045 27.8563 35.2966 27.9386C35.6367 28.0342 35.9885 28.0818 36.3417 28.0799C36.636 28.1069 36.9319 28.0485 37.1939 27.9117C37.2683 27.858 37.3282 27.7867 37.3682 27.704C37.4081 27.6214 37.4268 27.5302 37.4226 27.4385C37.4258 27.3212 37.3938 27.2056 37.3307 27.1066C37.2606 27.0062 37.1705 26.9215 37.0661 26.8576C36.9269 26.7706 36.7797 26.697 36.6265 26.6379C36.4494 26.5661 36.2453 26.4899 36.0143 26.4069C35.79 26.3261 35.5725 26.2364 35.3572 26.1378C35.1492 26.0423 34.954 25.921 34.7764 25.7767C34.5875 25.6236 34.437 25.4285 34.3369 25.207C34.2368 24.9854 34.19 24.7435 34.2 24.5006C34.199 24.281 34.2315 24.0624 34.2964 23.8525C34.3612 23.6474 34.4631 23.4558 34.597 23.2874C34.7436 23.1092 34.9243 22.9621 35.1285 22.8546C35.3707 22.7269 35.632 22.639 35.9022 22.5944V21.4933H37.1872V22.554C37.4951 22.5801 37.8003 22.6311 38.0999 22.7065C38.3076 22.7583 38.5108 22.8266 38.7077 22.9106L38.3915 24.1329C38.1385 24.03 37.8775 23.9482 37.611 23.8884C37.3048 23.8199 36.9919 23.7861 36.6781 23.7875C36.432 23.7664 36.1855 23.8237 35.9739 23.9512C35.9064 24 35.8516 24.0645 35.8145 24.1391C35.7774 24.2137 35.759 24.2962 35.7609 24.3795C35.7587 24.477 35.7811 24.5734 35.8259 24.6599C35.8778 24.7458 35.9502 24.8175 36.0367 24.8684C36.1476 24.9382 36.2647 24.9976 36.3866 25.0456C36.5256 25.1039 36.696 25.1667 36.8912 25.2362C37.1754 25.3383 37.4532 25.4574 37.7232 25.5928C37.9623 25.7123 38.1853 25.8615 38.387 26.0368C38.5813 26.2076 38.7355 26.4192 38.8386 26.6564C38.9417 26.8937 38.9912 27.1508 38.9835 27.4093C38.9828 27.6146 38.9518 27.8186 38.8916 28.0148Z" fill="white"/>
</svg>
