<svg width="63" height="62" viewBox="0 0 63 62" fill="none" xmlns="http://www.w3.org/2000/svg">
<rect x="0.666748" width="62" height="62" rx="16" fill="#FF873E"/>
<g clip-path="url(#clip0_129_256)">
<path d="M29.7917 29.125C35.4872 29.125 40.1042 26.6066 40.1042 23.5C40.1042 20.3934 35.4872 17.875 29.7917 17.875C24.0963 17.875 19.4792 20.3934 19.4792 23.5C19.4792 26.6066 24.0963 29.125 29.7917 29.125Z" fill="white"/>
<path d="M29.7917 38.5C25.2917 38.5 21.5417 37.1875 19.4792 35.125V38.5C19.4792 41.6875 23.9792 44.125 29.7917 44.125C30.6355 44.125 31.4792 44.0312 32.323 43.9375C30.9167 42.5312 30.073 40.5625 29.7917 38.5Z" fill="white"/>
<path d="M19.4792 27.625V31C19.4792 34.1875 23.9792 36.625 29.7917 36.625C29.7917 36.625 29.7917 36.625 29.8855 36.625C30.073 34.375 31.198 32.3125 32.698 30.8125C31.7605 30.9063 30.823 31 29.7917 31C25.2917 31 21.5417 29.6875 19.4792 27.625Z" fill="white"/>
<path d="M40.1042 30.1562V38.125L41.323 36.9062C41.698 36.5312 42.2605 36.5312 42.6355 36.9062C43.0105 37.2812 43.0105 37.8438 42.6355 38.2188L39.823 41.0312C39.7292 41.125 39.6355 41.2187 39.5417 41.2187C39.448 41.3125 39.2605 41.3125 39.1667 41.3125C39.073 41.3125 38.8855 41.3125 38.7917 41.2187C38.698 41.125 38.6042 41.125 38.5105 41.0312L35.698 38.2188C35.323 37.8438 35.323 37.2812 35.698 36.9062C36.073 36.5312 36.6355 36.5312 37.0105 36.9062L38.2292 38.125V30.1562C34.573 30.625 31.6667 33.8125 31.6667 37.5625C31.6667 41.6875 35.0417 45.0625 39.1667 45.0625C43.2917 45.0625 46.6667 41.6875 46.6667 37.5625C46.6667 33.7187 43.7605 30.625 40.1042 30.1562Z" fill="white"/>
</g>
<defs>
<clipPath id="clip0_129_256">
<rect width="30" height="30" fill="white" transform="translate(16.6667 16)"/>
</clipPath>
</defs>
</svg>
