<svg width="63" height="62" viewBox="0 0 63 62" fill="none" xmlns="http://www.w3.org/2000/svg">
<rect x="0.833252" width="62" height="62" rx="16" fill="#FF873E"/>
<path d="M43.9627 16.371C43.715 16.1236 43.4219 16 43.0834 16H20.5837C20.245 16 19.952 16.1236 19.7045 16.371C19.4572 16.6183 19.3335 16.9113 19.3335 17.2499V32.2496C19.3335 33.3696 19.5514 34.4795 19.9877 35.5798C20.4237 36.6801 20.9641 37.6568 21.6088 38.5096C22.2534 39.3627 23.0215 40.1928 23.9134 41C24.8054 41.8077 25.6289 42.4777 26.384 43.0119C27.1391 43.5456 27.9269 44.0504 28.7472 44.5251C29.5675 45.0001 30.1503 45.323 30.4952 45.492C30.8402 45.6615 31.1169 45.7916 31.3251 45.8825C31.4815 45.9607 31.6506 46 31.8331 46C32.0159 46 32.1848 45.9607 32.3413 45.8825C32.5494 45.7916 32.8261 45.6615 33.1709 45.492C33.5158 45.323 34.0989 45.0001 34.9192 44.5251C35.739 44.0504 36.5271 43.5456 37.2821 43.0119C38.0375 42.4776 38.8609 41.8076 39.753 41C40.6445 40.1928 41.4128 39.3626 42.0574 38.5096C42.7019 37.6568 43.2421 36.6801 43.679 35.5798C44.1154 34.4795 44.3331 33.3696 44.3331 32.2496V17.2499C44.333 16.9111 44.2094 16.6184 43.9627 16.371ZM40.5832 32.2496C40.5832 34.5413 39.0531 36.8849 35.9933 39.2807C34.7694 40.2441 33.3826 41.1362 31.8332 41.9565V19.7497H40.5832V32.2496Z" fill="white"/>
</svg>
