<svg width="62" height="62" viewBox="0 0 62 62" fill="none" xmlns="http://www.w3.org/2000/svg">
<rect width="62" height="62" rx="16" fill="#FF873E"/>
<path d="M31.625 28.6332C32.3109 29.2515 33.2016 29.5937 34.125 29.5937C35.0484 29.5937 35.9391 29.2515 36.625 28.6332V25.1879C36.625 24.9329 36.6028 24.6785 36.5585 24.4274L35.5125 18.5H31.625V28.6332Z" fill="white"/>
<path d="M25.375 25.1879V28.6332C26.0609 29.2515 26.9516 29.5937 27.875 29.5937C28.7984 29.5937 29.6891 29.2515 30.375 28.6332V18.5H26.4875L25.4416 24.4274C25.3972 24.6785 25.375 24.9329 25.375 25.1879Z" fill="white"/>
<path d="M43.8692 25.0433H43.869L41.8885 19.7213C41.7542 19.3634 41.5142 19.0549 41.2003 18.8367C40.8864 18.6186 40.5135 18.5011 40.1313 18.5H36.7819L37.7897 24.2101C37.8465 24.533 37.8751 24.8601 37.8751 25.1879V28.6333C38.3378 29.0494 38.897 29.3437 39.502 29.4894C40.107 29.6352 40.7389 29.628 41.3404 29.4683C41.9419 29.3086 42.4941 29.0015 42.9471 28.5749C43.4002 28.1482 43.7397 27.6153 43.9352 27.0245C44.1391 26.4098 44.1156 25.7061 43.8692 25.0433Z" fill="white"/>
<path d="M24.125 25.1879C24.125 24.8601 24.1536 24.533 24.2104 24.2101L25.2183 18.5H21.8685C21.4863 18.5011 21.1134 18.6186 20.7996 18.8367C20.4857 19.0549 20.2456 19.3634 20.1113 19.7213L18.1309 25.0432C17.8848 25.7061 17.8613 26.4098 18.065 27.0241C18.2603 27.615 18.5998 28.148 19.0529 28.5747C19.5059 29.0015 20.0582 29.3086 20.6597 29.4683C21.2612 29.628 21.8931 29.6353 22.4981 29.4895C23.1032 29.3437 23.6624 29.0494 24.1251 28.6332L24.125 25.1879Z" fill="white"/>
<path d="M40.375 30.8437C39.2387 30.8446 38.1362 30.4573 37.2501 29.7461C36.3634 30.4565 35.2612 30.8435 34.125 30.8435C32.9889 30.8435 31.8867 30.4565 31 29.7461C30.1134 30.4565 29.0112 30.8435 27.875 30.8435C26.7389 30.8435 25.6367 30.4565 24.75 29.7461C24.1441 30.2321 23.433 30.57 22.6735 30.7327C21.9139 30.8955 21.1269 30.8787 20.375 30.6836V40.375C20.376 41.2035 20.7056 41.9977 21.2915 42.5836C21.8773 43.1694 22.6716 43.499 23.5 43.5H38.5C39.3285 43.4989 40.1228 43.1694 40.7086 42.5835C41.2944 41.9977 41.624 41.2035 41.625 40.375V30.6836C41.2168 30.7893 40.7968 30.8431 40.375 30.8437ZM35.3781 36.438L33.8013 38.2028L34.0396 40.5574C34.0507 40.6662 34.033 40.7759 33.9883 40.8757C33.9437 40.9754 33.8736 41.0618 33.7852 41.126C33.6968 41.1903 33.593 41.2302 33.4843 41.2418C33.3756 41.2534 33.2658 41.2364 33.1658 41.1923L31 40.2379L28.8344 41.1923C28.7343 41.2363 28.6245 41.2534 28.5158 41.2418C28.4071 41.2301 28.3034 41.1902 28.215 41.126C28.1265 41.0617 28.0565 40.9754 28.0119 40.8756C27.9672 40.7759 27.9495 40.6662 27.9605 40.5574L28.1989 38.2028L26.622 36.438C26.5492 36.3564 26.499 36.2572 26.4765 36.1503C26.454 36.0433 26.4599 35.9323 26.4937 35.8283C26.5275 35.7244 26.588 35.6311 26.6691 35.5578C26.7502 35.4845 26.8491 35.4338 26.956 35.4107L29.2691 34.9098L30.4602 32.8649C30.5152 32.7704 30.594 32.692 30.6888 32.6376C30.7835 32.5831 30.8909 32.5544 31.0002 32.5544C31.1096 32.5544 31.217 32.5831 31.3117 32.6376C31.4065 32.692 31.4853 32.7704 31.5403 32.8649L32.7314 34.9098L35.0445 35.4107C35.1513 35.4339 35.2502 35.4846 35.3313 35.5579C35.4123 35.6313 35.4727 35.7245 35.5065 35.8285C35.5403 35.9324 35.5462 36.0434 35.5236 36.1504C35.5011 36.2573 35.4509 36.3565 35.3781 36.438Z" fill="white"/>
</svg>
