<svg width="235" height="211" viewBox="0 0 235 211" fill="none" xmlns="http://www.w3.org/2000/svg">
<path d="M67.6952 123.956L19.9663 190.265V223.268H220.237V190.265L163.586 114.991L67.6952 123.956Z" fill="#F3E3D8"/>
<path d="M19.9663 223.269V190.266L62.0647 130.93L72.4161 138.856L48.9848 191.175L46.9491 223.182L19.9663 223.269Z" fill="url(#paint0_linear_116_237)"/>
<path d="M221.623 190.266V223.269H194.553L193.167 193.904L161.854 133.182L171.382 125.342L221.623 190.266Z" fill="url(#paint1_linear_116_237)"/>
<path d="M46.9492 223.182L48.9848 191.175L72.4162 138.855L78.6963 143.923L62.8877 192.085L61.0253 223.269L46.9492 223.182Z" fill="#383838"/>
<path d="M161.854 133.182L193.168 193.904L194.553 223.269H180.088L178.745 194.38L155.573 138.639L161.854 133.182Z" fill="#383838"/>
<path opacity="0.64" d="M69.7309 171.772L115.511 217.985L167.224 166.921L178.745 194.38L180.088 223.269H61.0254L62.8878 192.085L69.7309 171.772Z" fill="white"/>
<g style="mix-blend-mode:multiply" opacity="0.74">
<path d="M171.382 125.342L134.135 156.31H95.3278L62.0648 130.929L52.1033 145.742L89.2642 176.016H143.62L183.076 140.241L171.382 125.342Z" fill="#CDC7C6"/>
</g>
<g style="mix-blend-mode:multiply" opacity="0.74">
<path d="M78.393 128.721L100.308 145.352H133.788L155.833 126.685L160.554 133.312L135.174 161.291H99.1824L73.0225 136.3L78.393 128.721Z" fill="#CDC7C6"/>
</g>
<path d="M35.8616 82.9405L78.9562 28.4119L2.20888 1.51562L0 43.3542L7.70939 64.5333L35.8616 82.9405Z" fill="url(#paint2_linear_116_237)"/>
<path d="M52.0166 58.2533L56.4776 51.4534L8.96533 17.1943L15.4187 50.3274L44.7403 77.8732L52.0166 58.2533Z" fill="url(#paint3_linear_116_237)"/>
<g style="mix-blend-mode:screen" opacity="0.19">
<path d="M2.20898 1.51562L72.9793 25.8998L60.3758 45.8229L2.20898 1.51562Z" fill="white"/>
</g>
<path d="M198.841 80.1255L156.44 26.5064L231.931 0L234.14 41.1888L226.56 62.0215L198.841 80.1255Z" fill="url(#paint4_linear_116_237)"/>
<path d="M182.946 55.8712L178.572 49.158L225.348 15.4619L218.938 48.0752L190.093 75.1879L182.946 55.8712Z" fill="url(#paint5_linear_116_237)"/>
<g style="mix-blend-mode:screen" opacity="0.19">
<path d="M231.931 0L162.33 24.0376L174.717 43.6575L231.931 0Z" fill="white"/>
</g>
<path d="M167.311 22.8247H118.283H112.522H63.4508L27.8923 76.4439L33.6527 117.07L98.0996 166.098H113.475H117.33H132.705L188.49 118.975L200.141 78.826L167.311 22.8247Z" fill="url(#paint6_linear_116_237)"/>
<path d="M78.9128 59.8126L112.566 35.7749L153.711 66.3093L133.528 87.9648L129.414 104.813L113.172 118.283L99.5722 108.668L96.7137 87.9648L78.9128 59.8126Z" fill="#F9F9F9"/>
<g style="mix-blend-mode:screen" opacity="0.19">
<path d="M167.051 22.8251L200.141 78.8264L188.49 118.976L132.705 166.098H121.531L130.54 160.641L175.453 117.027L191.305 81.2085L155.487 22.6519L167.051 22.8251Z" fill="white"/>
</g>
<path d="M98.6193 102.431L85.626 121.184L90.3902 141.107L136.3 140.674L142.407 121.661L127.508 100.958L114.038 91.8193L98.6193 102.431Z" fill="#AA9F9F"/>
<g style="mix-blend-mode:multiply" opacity="0.07">
<path d="M27.8923 76.4439L63.4508 22.8247H87.9215L68.4315 26.8093L34.6056 80.0387L40.799 112.522L101.218 162.633L113.475 166.098H98.0996L33.6527 117.07L27.8923 76.4439Z" fill="#4C4C4C"/>
</g>
<path d="M70.4239 44.957L96.9303 83.6339L101.261 102.431L65.9195 111.57L39.9329 86.5357L70.4239 44.957Z" fill="#383838"/>
<path d="M157.046 45.6499L130.626 83.6338L126.295 102.431L161.68 111.569L187.667 86.5356L157.046 45.6499Z" fill="#383838"/>
<path d="M63.4507 22.8247H167.311L181.863 48.3783L112.565 33.8691L48.8115 44.9567L63.4507 22.8247Z" fill="#383838"/>
<path opacity="0.34" d="M33.6528 117.07L59.0331 119.582L69.731 144.746L33.6528 117.07Z" fill="#DE4184"/>
<path opacity="0.34" d="M188.577 118.802L163.153 122.57L152.455 149.726L188.577 118.802Z" fill="#DE4184"/>
<path d="M182.47 67.2622L130.626 66.8291H96.9303L45.0436 67.2622L22.825 96.2807L52.3198 125.732L103.08 113.518L103.903 86.2325H123.61L124.433 113.518L175.237 125.732L204.688 96.2807L182.47 67.2622Z" fill="#1E1E1E"/>
<path d="M204.688 96.2807L182.47 67.2622L116.94 66.8291L175.237 125.732L204.688 96.2807Z" fill="#2B2B2B"/>
<path d="M176.796 84.0236L185.242 81.3384L176.579 79.0429L173.894 70.5972L171.685 79.2594L163.153 81.9014L171.815 84.1969L174.5 92.6859L176.796 84.0236Z" fill="white"/>
<path d="M103.08 113.518L45.0435 67.2622L96.9302 66.8291L118.889 86.2325H103.903L103.08 113.518Z" fill="#2B2B2B"/>
<path d="M79.3027 125.386L85.6262 121.185L142.407 121.661L147.215 125.559L147.431 149.077L134.914 159.342L97.4068 159.731L82.4644 151.892L79.3027 125.386Z" fill="#AA9F9F"/>
<path d="M109.707 109.144L112.479 88.2246H114.731L117.85 109.62L126.512 124.086L136.3 140.674L125.819 154.664L113.475 154.317L101.998 154.231L90.3904 141.107L99.5723 125.515L109.707 109.144Z" fill="#383838"/>
<path d="M81.9014 131.189L90.3037 139.202H137.166L145.655 130.713L145.006 148.167L133.961 157.306H97.7532L84.3268 150.03L81.9014 131.189Z" fill="white"/>
<path d="M87.3152 142.537L94.9813 147.041H133.615L140.674 142.753L133.788 149.077H94.7647L87.3152 142.537Z" fill="#1E1E1E"/>
<path d="M113.259 113.648L99.9187 120.622L100.092 133.658L127.594 133.355L127.465 119.929L113.259 113.648Z" fill="black"/>
<path d="M113.572 120.947L104.217 121.05L104.247 123.779L113.602 123.676L113.572 120.947Z" fill="white"/>
<defs>
<linearGradient id="paint0_linear_116_237" x1="43.1811" y1="144.096" x2="50.5006" y2="234.183" gradientUnits="userSpaceOnUse">
<stop stop-color="#BCB7A4"/>
<stop offset="1" stop-color="#6B6968"/>
</linearGradient>
<linearGradient id="paint1_linear_116_237" x1="189.313" y1="132.142" x2="196.676" y2="222.229" gradientUnits="userSpaceOnUse">
<stop stop-color="#BCB7A4"/>
<stop offset="1" stop-color="#6B6968"/>
</linearGradient>
<linearGradient id="paint2_linear_116_237" x1="59.163" y1="66.0925" x2="5.80369" y2="-0.0435742" gradientUnits="userSpaceOnUse">
<stop stop-color="#F0EDE1"/>
<stop offset="1" stop-color="#9F9F9F"/>
</linearGradient>
<linearGradient id="paint3_linear_116_237" x1="-13.9896" y1="-20.6596" x2="58.9897" y2="83.8501" gradientUnits="userSpaceOnUse">
<stop stop-color="#D66D89"/>
<stop offset="1" stop-color="#F2ADB3"/>
</linearGradient>
<linearGradient id="paint4_linear_116_237" x1="175.886" y1="63.5807" x2="228.423" y2="-1.51589" gradientUnits="userSpaceOnUse">
<stop stop-color="#F0EDE1"/>
<stop offset="1" stop-color="#9F9F9F"/>
</linearGradient>
<linearGradient id="paint5_linear_116_237" x1="247.913" y1="-21.7856" x2="176.103" y2="81.0782" gradientUnits="userSpaceOnUse">
<stop stop-color="#D66D89"/>
<stop offset="1" stop-color="#F2ADB3"/>
</linearGradient>
<linearGradient id="paint6_linear_116_237" x1="114.038" y1="22.3916" x2="114.038" y2="118.412" gradientUnits="userSpaceOnUse">
<stop stop-color="#ACA9A4"/>
<stop offset="1" stop-color="#F3DCCF"/>
</linearGradient>
</defs>
</svg>
