<svg width="304" height="57" viewBox="0 0 304 57" fill="none" xmlns="http://www.w3.org/2000/svg">
<rect width="56.9999" height="56.9999" rx="28.5" fill="#D75200"/>
<g clip-path="url(#clip0_106_648)">
<rect x="5.02075" y="4.13477" width="47.2538" height="48.7305" rx="23.6269" fill="#FF6201"/>
<ellipse cx="25.1036" cy="26.2847" rx="23.3316" ry="23.3316" fill="#FF873E"/>
<path d="M8.37459 35.8347C2.05473 13.8181 23.184 -2.36285 42.9716 11.3702C25.5467 1.32886 6.16812 15.0884 8.37459 35.8347Z" fill="white" fill-opacity="0.17"/>
<ellipse cx="28.6201" cy="47.3796" rx="14.9114" ry="12.7468" fill="#D9D9D9"/>
<path d="M43.5315 47.3796C43.5315 54.4195 35.8934 54.3543 27.6581 54.3543C19.4228 54.3543 13.7087 54.4195 13.7087 47.3796C13.7087 40.3398 20.3848 34.6328 28.6201 34.6328C36.8554 34.6328 43.5315 40.3398 43.5315 47.3796Z" fill="white"/>
<path d="M43.5315 47.3796C43.5315 54.4195 40.2847 37.2784 28.6201 37.2784C16.2341 37.2784 13.7087 54.4195 13.7087 47.3796C13.7087 40.3398 20.3848 34.6328 28.6201 34.6328C36.8554 34.6328 43.5315 40.3398 43.5315 47.3796Z" fill="#323C1D"/>
</g>
<path d="M16.5388 20.9688H41.6424L40.0123 32.2059L34.796 38.6889L23.7113 38.1487L17.1909 32.2059L16.5388 20.9688Z" fill="white"/>
<path d="M16.5388 20.9688H41.6424V23.6268L28.4999 27.9092L16.5388 23.4791V20.9688Z" fill="#BCBCBC"/>
<circle cx="23.627" cy="28.3531" r="1.77202" fill="#FF6201"/>
<circle cx="33.6685" cy="28.3531" r="1.77202" fill="#FF6201"/>
<path fill-rule="evenodd" clip-rule="evenodd" d="M13.8809 22.8453C13.8809 25.4231 13.9361 27.35 14.0217 27.7627C14.2367 28.7985 14.9617 30.1957 15.7048 31.0066C16.2658 31.6187 16.411 31.8831 16.6051 32.6451C16.9637 34.0533 17.7445 35.3023 19.1456 36.7089C19.8165 37.3825 20.7121 38.1588 21.1359 38.4339C25.8788 41.5134 31.457 41.5318 36.0287 38.4832C37.4898 37.5089 39.0991 35.9104 39.8033 34.734C40.2779 33.941 40.8464 32.4893 40.8464 32.07C40.8464 31.9242 41.1498 31.4781 41.5205 31.0785C41.8912 30.679 42.381 30.0033 42.6088 29.5768C43.3423 28.2035 43.4105 27.6359 43.4126 22.8836L43.4145 18.6064L41.7773 18.6887C40.8769 18.7339 39.7204 18.8551 39.2074 18.9581C38.0504 19.1902 36.2594 19.9088 35.3702 20.4975L34.6991 20.9419L33.9528 20.6858C30.9138 19.6432 26.1452 19.6503 23.3269 20.7019L22.6362 20.9597L21.8403 20.4467C20.1634 19.3659 18.2149 18.8241 15.5181 18.6887L13.8809 18.6064V22.8453ZM38.8896 22.3294C38.6389 23.006 38.6121 23.4059 38.5425 27.4808C38.4582 32.4152 38.5002 32.1739 37.4533 33.7368C36.7476 34.7903 35.9293 35.5903 34.6971 36.4308C33.7483 37.078 33.5272 37.1333 33.5272 36.7233C33.5272 35.7589 31.4316 33.704 29.1899 32.4701C28.6473 32.1713 28.6357 32.1706 28.2269 32.4035C25.9818 33.6824 24.1697 35.3358 23.8628 36.3856C23.7686 36.708 23.661 36.9828 23.6239 36.9964C23.4643 37.0542 21.901 35.9827 21.1983 35.3339C20.4208 34.616 19.451 33.2871 19.0518 32.3922C18.8634 31.9698 18.8206 31.2631 18.7539 27.4808C18.6821 23.4091 18.6548 23.0052 18.4041 22.3267C18.1399 21.6115 18.1391 21.5904 18.3772 21.5904C19.1265 21.5904 21.1695 22.6582 21.6952 23.3247C22.2187 23.9884 22.1901 24.208 21.48 24.9829C20.6043 25.9386 20.1792 26.843 20.0863 27.949C19.8867 30.3221 21.4303 32.0882 23.704 32.0882C24.8294 32.0882 25.6698 31.7252 26.4126 30.9182C27.1732 30.0919 27.4113 29.3784 27.3343 28.1553C27.2482 26.786 26.8302 25.9008 25.7707 24.8442L24.9419 24.0176L25.2803 23.7963C25.5144 23.6435 25.8645 23.578 26.4146 23.5844C27.2451 23.5939 27.6102 23.7492 28.2952 24.3846L28.6488 24.7127L29.0656 24.3194C29.2949 24.103 29.6268 23.8514 29.8033 23.7602C30.2896 23.509 31.6081 23.5305 32.015 23.7963L32.3535 24.0176L31.5248 24.8441C30.437 25.9288 30.0305 26.7979 29.9565 28.1968C29.8919 29.4174 30.1161 30.0611 30.9124 30.942C31.619 31.7235 32.4713 32.0882 33.5914 32.0882C34.7177 32.0882 35.5573 31.7252 36.3024 30.9156C37.7453 29.348 37.5417 26.8666 35.8154 24.9829C35.2899 24.4097 35.184 24.2184 35.2488 23.9608C35.3761 23.4548 36.0243 22.8163 36.8627 22.3706C37.7064 21.9221 38.9313 21.4649 39.0729 21.5454C39.1216 21.5732 39.039 21.9259 38.8896 22.3294ZM24.5485 27.599C25.0405 28.0896 25.0565 28.7126 24.5914 29.2637C24.3147 29.5918 24.1661 29.6578 23.704 29.6578C23.2419 29.6578 23.0933 29.5918 22.8166 29.2637C22.3515 28.7126 22.3675 28.0896 22.8595 27.599C23.3775 27.0825 24.0305 27.0825 24.5485 27.599ZM34.4359 27.599C34.9278 28.0896 34.9439 28.7126 34.4788 29.2637C34.2021 29.5918 34.0535 29.6578 33.5914 29.6578C33.1292 29.6578 32.9807 29.5918 32.7039 29.2637C32.2388 28.7126 32.2549 28.0896 32.7468 27.599C33.2648 27.0825 33.9179 27.0825 34.4359 27.599Z" fill="#323C1D"/>
<circle cx="23.7747" cy="28.5001" r="0.738341" fill="#323C1D"/>
<circle cx="33.5208" cy="28.5001" r="0.738341" fill="#323C1D"/>
<path d="M75.5188 41.965V15.3926H80.9279L88.6065 26.4012L96.2851 15.3926H101.656V41.965H96.2851V23.7819L90.1952 32.323H87.1691L80.9657 23.7819V41.965H75.5188Z" fill="#003557"/>
<path d="M111.556 36.271C112.539 37.2832 113.787 37.7894 115.3 37.7894C116.813 37.7894 118.062 37.2832 119.045 36.271C120.029 35.2587 120.52 33.9933 120.52 32.4749C120.52 30.9565 120.029 29.7038 119.045 28.7168C118.062 27.7045 116.813 27.1983 115.3 27.1983C113.787 27.1983 112.539 27.7045 111.556 28.7168C110.572 29.7038 110.08 30.9565 110.08 32.4749C110.08 33.9933 110.572 35.2587 111.556 36.271ZM122.828 39.6115C120.861 41.5095 118.352 42.4585 115.3 42.4585C112.249 42.4585 109.74 41.5095 107.773 39.6115C105.806 37.6881 104.823 35.3093 104.823 32.4749C104.823 29.6658 105.806 27.3122 107.773 25.4142C109.74 23.4909 112.249 22.5292 115.3 22.5292C118.352 22.5292 120.861 23.4909 122.828 25.4142C124.795 27.3375 125.778 29.6911 125.778 32.4749C125.778 35.3093 124.795 37.6881 122.828 39.6115Z" fill="#003557"/>
<path d="M133.911 41.965H128.577V23.0227H133.911V25.3003C135.651 23.4529 137.756 22.5292 140.227 22.5292C142.421 22.5292 144.111 23.2251 145.296 24.617C146.507 26.0089 147.112 27.9196 147.112 30.3491V41.965H141.778V31.4499C141.778 29.9821 141.425 28.9445 140.719 28.3372C140.013 27.7298 139.168 27.4261 138.185 27.4261C137.327 27.4261 136.508 27.6665 135.726 28.1474C134.97 28.6029 134.364 29.185 133.911 29.8936V41.965Z" fill="#003557"/>
<path d="M160.054 42.4585C157.104 42.4585 154.62 41.5475 152.603 39.7254C150.585 37.9033 149.577 35.4864 149.577 32.4749C149.577 29.6658 150.484 27.3122 152.3 25.4142C154.141 23.4909 156.511 22.5292 159.411 22.5292C162.16 22.5292 164.341 23.5035 165.955 25.4522C167.594 27.3755 168.414 29.7417 168.414 32.5508V33.9553H154.872C155.15 35.246 155.856 36.233 156.99 36.9163C158.125 37.5743 159.525 37.9033 161.189 37.9033C163.383 37.9033 165.4 37.3465 167.241 36.233V40.5225C165.552 41.8132 163.156 42.4585 160.054 42.4585ZM154.872 30.5389H163.156C163.106 29.476 162.715 28.5776 161.983 27.8437C161.277 27.1098 160.344 26.7428 159.184 26.7428C157.949 26.7428 156.953 27.0971 156.196 27.8057C155.44 28.5143 154.998 29.4254 154.872 30.5389Z" fill="#003557"/>
<path d="M173.832 49.7849C172.269 49.7849 171.008 49.5319 170.05 49.0257V44.3566C170.932 44.8627 171.89 45.1158 172.924 45.1158C173.883 45.1158 174.677 44.8121 175.307 44.2047C175.963 43.5974 176.568 42.6357 177.123 41.3197L168.99 23.0227H174.74L179.733 35.4738L184.461 23.0227H190.097L181.359 43.939C179.695 47.8363 177.186 49.7849 173.832 49.7849Z" fill="#003557"/>
<path d="M192.446 41.965V15.3926H197.893V37.0681H211.321V41.965H192.446Z" fill="#003557"/>
<path d="M223.03 42.4585C220.079 42.4585 217.596 41.5475 215.578 39.7254C213.561 37.9033 212.552 35.4864 212.552 32.4749C212.552 29.6658 213.46 27.3122 215.276 25.4142C217.116 23.4909 219.487 22.5292 222.387 22.5292C225.135 22.5292 227.317 23.5035 228.931 25.4522C230.57 27.3755 231.389 29.7417 231.389 32.5508V33.9553H217.848C218.125 35.246 218.831 36.233 219.966 36.9163C221.101 37.5743 222.5 37.9033 224.165 37.9033C226.359 37.9033 228.376 37.3465 230.217 36.233V40.5225C228.527 41.8132 226.132 42.4585 223.03 42.4585ZM217.848 30.5389H226.132C226.081 29.476 225.69 28.5776 224.959 27.8437C224.253 27.1098 223.32 26.7428 222.16 26.7428C220.924 26.7428 219.928 27.0971 219.172 27.8057C218.415 28.5143 217.974 29.4254 217.848 30.5389Z" fill="#003557"/>
<path d="M234.349 41.965V23.0227H239.682V25.3383C241.12 23.4655 243.036 22.5292 245.432 22.5292C246.844 22.5292 248.054 22.8455 249.063 23.4782C250.097 24.0856 250.841 24.8448 251.295 25.7558C251.925 24.8195 252.82 24.0476 253.98 23.4402C255.14 22.8329 256.414 22.5292 257.801 22.5292C259.818 22.5292 261.445 23.1745 262.68 24.4652C263.916 25.7558 264.534 27.6412 264.534 30.1213V41.965H259.2V31.3361C259.2 28.7294 258.154 27.4261 256.061 27.4261C255.254 27.4261 254.485 27.6792 253.754 28.1853C253.047 28.6662 252.505 29.2735 252.127 30.0074V41.965H246.794V31.3361C246.794 28.7294 245.747 27.4261 243.654 27.4261C242.872 27.4261 242.103 27.6665 241.347 28.1474C240.615 28.6282 240.061 29.2229 239.682 29.9315V41.965H234.349Z" fill="#003557"/>
<path d="M281.093 23.0227H286.427V41.965H281.093V39.6874C279.429 41.5348 277.323 42.4585 274.776 42.4585C272.582 42.4585 270.88 41.7626 269.67 40.3707C268.485 38.9788 267.892 37.0681 267.892 34.6386V23.0227H273.226V33.5378C273.226 35.0056 273.579 36.0432 274.285 36.6506C274.991 37.2579 275.836 37.5616 276.819 37.5616C277.676 37.5616 278.483 37.3338 279.24 36.8783C280.022 36.3975 280.639 35.8028 281.093 35.0942V23.0227Z" fill="#003557"/>
<path d="M290.517 41.965V23.0227H295.851V26.2114C296.405 25.2244 297.288 24.364 298.498 23.63C299.734 22.8961 301.045 22.5292 302.432 22.5292C302.659 22.5292 302.861 22.5418 303.038 22.5671V27.8057C302.558 27.6792 302.004 27.6159 301.373 27.6159C300.087 27.6159 298.94 27.9576 297.931 28.6409C296.948 29.2988 296.254 30.0581 295.851 30.9185V41.965H290.517Z" fill="#003557"/>
<defs>
<clipPath id="clip0_106_648">
<rect x="5.02075" y="4.13477" width="47.2538" height="48.7305" rx="23.6269" fill="white"/>
</clipPath>
</defs>
</svg>
