<svg width="444" height="547" viewBox="0 0 444 547" fill="none" xmlns="http://www.w3.org/2000/svg">
<path d="M306.522 347.733L384.76 350.792L427.407 392.44L437.085 453.882L388.819 529.061L285.167 546.294L191.194 526.064L167.216 517.01L152.293 493.844L172.087 478.421L200.872 475.736L289.787 487.912L347.046 479.42L365.341 465.059L386.758 435.087L371.023 394.438L314.639 382.263L306.522 347.733Z" fill="url(#paint0_linear_116_306)"/>
<path d="M200.872 475.736L191.194 526.063L220.541 532.432L226.597 479.295L200.872 475.736Z" fill="#383838"/>
<path d="M247.39 482.105L244.268 537.49L275.926 544.296L276.425 486.102L247.39 482.105Z" fill="#383838"/>
<path d="M335.869 537.865L329.25 482.23L301.901 486.039L305.21 542.985L335.869 537.865Z" fill="#383838"/>
<path d="M388.819 529.06L400.432 510.952L365.341 465.058L347.046 479.42L372.147 531.87L388.819 529.06Z" fill="#383838"/>
<path d="M437.085 453.882L386.571 435.399L374.27 452.882L420.663 479.42L437.085 453.882Z" fill="#383838"/>
<path d="M427.407 392.564L375.581 405.989L382.699 424.659L431.84 421.225L427.407 392.564Z" fill="#383838"/>
<path d="M384.76 350.792L366.652 350.043L346.171 389.131L367.714 393.689L398.122 363.842L384.76 350.792Z" fill="#383838"/>
<g style="mix-blend-mode:multiply" opacity="0.19">
<path d="M346.796 349.481L384.76 350.792L427.407 392.44L437.085 453.882L388.819 529.061L285.167 546.294L191.194 526.064L167.216 517.01L152.293 493.844L171.088 504.896L199.311 511.515L285.167 523.816L378.016 511.078L415.918 446.764L405.803 397.061L378.016 371.96L342.363 367.089L310.268 363.156L306.522 347.733L346.796 349.481Z" fill="black"/>
</g>
<path d="M291.286 327.752L253.073 400.557L273.054 410.111L264.374 428.344L334.62 448.262L354.539 445.702L345.922 421.413L304.274 407.551L331.998 383.261L356.287 329.5L341.801 299.091L312.641 296.906L291.286 327.752Z" fill="url(#paint1_linear_116_306)"/>
<g style="mix-blend-mode:multiply" opacity="0.39">
<path d="M312.641 296.906L342.051 299.466L356.287 329.75L331.998 383.511L304.274 407.801L291.786 408.675L322.194 376.955L345.547 327.814L337.243 305.335L312.641 296.906Z" fill="#CDC7C6"/>
</g>
<path d="M151.856 327.752L190.07 400.558L170.089 410.111L178.768 428.344L108.522 448.262L88.6034 445.702L97.2203 421.413L138.868 407.551L111.145 383.262L86.8551 329.5L100.842 298.966L131.313 297.468L151.856 327.752Z" fill="url(#paint2_linear_116_306)"/>
<path d="M181.89 145.05L139.43 185.699L105.4 269.994L46.0189 276.551L43.8335 258.568L36.403 258.942L34.3425 278.923L23.8524 278.049L36.403 258.942L30.471 256.882L13.0501 276.363L14.736 284.98L26.9121 288.04L0 306.834L3.74648 313.453L33.3434 295.657L10.4901 321.571L16.422 326.129L39.7748 302.776L28.2858 328.689L34.842 330.375L49.7029 302.713L119.636 298.093L156.289 257.569L159.286 211.362L181.89 145.05Z" fill="url(#paint3_linear_116_306)"/>
<path d="M257.443 140.679L305.523 188.259L340.552 270.493L397.685 275.801L399.871 257.818L407.364 258.193L409.362 278.111L419.852 277.3L407.364 258.193L413.295 256.132L430.716 275.614L429.031 284.23L416.792 287.29L443.766 306.085L440.02 312.703L410.361 294.908L433.276 320.821L427.345 325.379L403.929 302.026L415.481 327.939L408.862 329.625L395.687 303.275L324.192 298.092L287.477 256.819L284.418 210.613L257.443 140.679Z" fill="url(#paint4_linear_116_306)"/>
<path d="M284.73 210.612L265.685 149.608L243.519 118.138H240.334H203.057H199.935L177.706 149.608L158.662 210.612L150.794 339.116L183.201 403.867L203.057 410.735H240.334L262.376 404.741L292.66 339.116L284.73 210.612Z" fill="url(#paint5_linear_116_306)"/>
<path d="M199.935 118.138L177.707 149.608L158.662 210.612L151.107 325.878L158.724 339.615L176.52 211.612L190.195 151.169L199.935 118.138Z" fill="#383838"/>
<path d="M243.519 118.138L265.748 149.608L284.792 210.612L292.348 325.878L284.73 339.615L266.934 211.612L253.26 151.169L243.519 118.138Z" fill="#383838"/>
<path d="M190.195 151.169L181.578 189.945L196.813 214.672L178.893 285.417L223.538 379.203L265.748 288.664L248.639 217.044L260.815 185.887L252.011 148.609L222.913 182.64L190.195 151.169Z" fill="white"/>
<g style="mix-blend-mode:multiply" opacity="0.39">
<path d="M131.313 297.468L100.842 298.966L86.8551 329.5L111.145 383.262L138.868 407.551L151.606 408.675L120.948 376.705L97.5949 327.564L105.9 305.086L131.313 297.468Z" fill="#CDC7C6"/>
</g>
<g style="mix-blend-mode:multiply" opacity="0.39">
<path d="M183.201 403.867L162.221 361.907L190.132 389.256L224.1 399.871L253.01 389.693L281.858 362.843L262.376 404.741L240.335 410.735H203.057L183.201 403.867Z" fill="#CDC7C6"/>
</g>
<g style="mix-blend-mode:multiply" opacity="0.74">
<path d="M188.509 134.248L206.866 148.234H235.027L253.51 132.562L257.506 138.056L236.151 161.597H205.93L184.013 140.616L188.509 134.248Z" fill="#CDC7C6"/>
</g>
<path d="M63.1901 274.614L46.0189 276.55L43.8335 258.567L36.403 258.942L34.3425 278.922L23.8524 278.048L36.403 258.942L30.471 256.881L13.0501 276.362L14.736 284.979L26.9121 288.039L0 306.833L3.74648 313.452L33.3434 295.657L10.4901 321.57L16.422 326.128L39.7748 302.775L28.2858 328.688L34.842 330.374L49.7029 302.712L65.5629 301.838L63.1901 274.614Z" fill="#383838"/>
<path d="M381.138 273.99L397.685 275.801L400.058 257.881L407.551 258.193L409.549 278.174L420.039 277.362L407.551 258.193L413.42 256.195L430.904 275.676L429.218 284.293L416.98 287.353L443.954 306.147L440.208 312.704L410.548 294.97L433.401 320.821L427.47 325.442L404.117 302.026L415.668 327.939L409.049 329.625L395.687 303.275L377.954 302.214L381.138 273.99Z" fill="#383838"/>
<path d="M138.868 407.551L151.606 408.675L170.089 410.111L178.768 428.343L108.522 448.262L88.6033 445.702L97.2201 421.413L138.868 407.551Z" fill="#383838"/>
<path d="M273.053 410.111L291.786 408.675L304.274 407.801L345.922 421.413L354.539 445.702L334.62 448.262L264.374 428.344L273.053 410.111Z" fill="#383838"/>
<path d="M152.792 95.7841L181.453 52.3254L141.428 0L128.066 34.9667L128.878 77.8012L152.792 95.7841Z" fill="url(#paint6_linear_116_306)"/>
<path d="M166.342 75.0538L170.089 69.3091L139.618 19.981L141.491 51.9506L160.223 91.5382L166.342 75.0538Z" fill="url(#paint7_linear_116_306)"/>
<g style="mix-blend-mode:screen" opacity="0.19">
<path d="M141.428 0L181.453 52.3254L173.398 64.6261L141.428 0Z" fill="white"/>
</g>
<path d="M286.478 95.7841L257.818 52.3254L297.78 0L307.146 27.4739L307.708 78.3631L286.478 95.7841Z" fill="url(#paint8_linear_116_306)"/>
<path d="M272.866 75.0538L269.182 69.3091L299.653 19.981L295.595 58.9441L277.862 92.7244L272.866 75.0538Z" fill="url(#paint9_linear_116_306)"/>
<g style="mix-blend-mode:screen" opacity="0.19">
<path d="M297.78 0L257.818 52.3254L265.873 64.6261L297.78 0Z" fill="white"/>
</g>
<path d="M263.188 45.332H221.977H217.169H175.958L146.111 90.352L150.919 124.445L205.056 165.656H217.981H221.165H234.09L280.984 126.068L290.787 92.3499L263.188 45.332Z" fill="url(#paint10_linear_116_306)"/>
<path d="M188.946 76.365L217.231 56.1968L251.761 81.8598L234.777 100.03L231.343 114.142L217.731 125.506L206.304 117.389L203.869 100.03L188.946 76.365Z" fill="#F9F9F9"/>
<g style="mix-blend-mode:screen" opacity="0.19">
<path d="M262.938 45.3318L290.787 92.3497L280.984 126.068L234.09 165.655H224.724L232.28 161.035L270.056 124.444L283.356 94.3479L253.26 45.1445L262.938 45.3318Z" fill="white"/>
</g>
<path d="M205.493 112.144L194.565 127.879L198.562 144.613L237.15 144.301L242.27 128.316L229.72 110.958L218.418 103.277L205.493 112.144Z" fill="#AA9F9F"/>
<path d="M214.796 117.826L217.169 100.217H219.042L221.665 118.2L228.908 130.314L237.15 144.3L228.346 156.039L218.355 159.599L208.303 155.665L198.562 144.613L206.304 131.562L214.796 117.826Z" fill="#383838"/>
<path d="M217.793 121.572L206.617 127.442L206.741 138.369L229.845 138.119L229.72 126.88L217.793 121.572Z" fill="black"/>
<path d="M198.562 144.613L218.418 150.794L237.15 144.3L234.715 147.735L218.293 154.291L201.871 148.234L198.562 144.613Z" fill="black"/>
<path d="M218.106 130.002L210.238 130.064L210.176 127.754L218.043 127.691L218.106 130.002Z" fill="white"/>
<g style="mix-blend-mode:multiply" opacity="0.07">
<path d="M146.111 90.3518L175.958 45.3318L196.501 45.2695L180.142 48.6412L151.731 93.3488L156.914 120.635L207.678 162.721L217.981 165.655H205.056L150.919 124.444L146.111 90.3518Z" fill="#4C4C4C"/>
</g>
<path d="M181.828 63.877L204.056 96.4087L207.74 112.144L178.019 119.824L156.164 98.7813L181.828 63.877Z" fill="#383838"/>
<path d="M254.571 64.4385L232.404 96.4083L228.72 112.143L258.442 119.824L280.297 98.7809L254.571 64.4385Z" fill="#383838"/>
<path d="M175.958 45.332H263.188L275.364 66.8117L217.231 54.5733L163.657 63.8769L175.958 45.332Z" fill="#383838"/>
<path d="M167.778 96.6582L180.579 107.023L196.189 104.089L196.876 106.399L180.142 109.896L165.905 98.2817L167.778 96.6582Z" fill="#FFBC00"/>
<path d="M268.495 96.6582L255.695 107.023L240.085 104.089L239.398 106.399L256.132 109.896L270.431 98.2817L268.495 96.6582Z" fill="#FFBC00"/>
<defs>
<linearGradient id="paint0_linear_116_306" x1="242.957" y1="401.931" x2="370.336" y2="525.252" gradientUnits="userSpaceOnUse">
<stop stop-color="#ACA9A4"/>
<stop offset="1" stop-color="#F3E3D8"/>
</linearGradient>
<linearGradient id="paint1_linear_116_306" x1="305.023" y1="390.879" x2="302.713" y2="219.479" gradientUnits="userSpaceOnUse">
<stop stop-color="#ACA9A4"/>
<stop offset="1" stop-color="#F3E3D8"/>
</linearGradient>
<linearGradient id="paint2_linear_116_306" x1="138.868" y1="393.127" x2="136.496" y2="221.727" gradientUnits="userSpaceOnUse">
<stop stop-color="#ACA9A4"/>
<stop offset="1" stop-color="#F3E3D8"/>
</linearGradient>
<linearGradient id="paint3_linear_116_306" x1="88.9781" y1="175.959" x2="94.2856" y2="311.518" gradientUnits="userSpaceOnUse">
<stop stop-color="#BCB7A4"/>
<stop offset="1" stop-color="#6B6968"/>
</linearGradient>
<linearGradient id="paint4_linear_116_306" x1="348.357" y1="165.843" x2="353.602" y2="301.464" gradientUnits="userSpaceOnUse">
<stop stop-color="#BCB7A4"/>
<stop offset="1" stop-color="#6B6968"/>
</linearGradient>
<linearGradient id="paint5_linear_116_306" x1="222.414" y1="392.003" x2="220.104" y2="220.603" gradientUnits="userSpaceOnUse">
<stop stop-color="#ACA9A4"/>
<stop offset="1" stop-color="#F3E3D8"/>
</linearGradient>
<linearGradient id="paint6_linear_116_306" x1="170.838" y1="83.1711" x2="119.262" y2="19.2316" gradientUnits="userSpaceOnUse">
<stop stop-color="#F0EDE1"/>
<stop offset="1" stop-color="#9F9F9F"/>
</linearGradient>
<linearGradient id="paint7_linear_116_306" x1="104.401" y1="-9.4287" x2="177.582" y2="95.4095" gradientUnits="userSpaceOnUse">
<stop stop-color="#D66D89"/>
<stop offset="1" stop-color="#F2ADB3"/>
</linearGradient>
<linearGradient id="paint8_linear_116_306" x1="267.746" y1="82.6091" x2="319.322" y2="18.6696" gradientUnits="userSpaceOnUse">
<stop stop-color="#F0EDE1"/>
<stop offset="1" stop-color="#9F9F9F"/>
</linearGradient>
<linearGradient id="paint9_linear_116_306" x1="335.37" y1="-10.3652" x2="260.378" y2="96.9705" gradientUnits="userSpaceOnUse">
<stop stop-color="#D66D89"/>
<stop offset="1" stop-color="#F2ADB3"/>
</linearGradient>
<linearGradient id="paint10_linear_116_306" x1="218.418" y1="44.8949" x2="218.418" y2="125.569" gradientUnits="userSpaceOnUse">
<stop stop-color="#ACA9A4"/>
<stop offset="1" stop-color="#F3DCCF"/>
</linearGradient>
</defs>
</svg>
